<svg width="73" height="73" viewBox="0 0 73 73" fill="none" xmlns="http://www.w3.org/2000/svg">
<rect x="0.799951" y="1.2001" width="70.8" height="70.8" rx="13.8" stroke="black" stroke-opacity="0.1" stroke-width="1.2"/>
<g clip-path="url(#clip0_19_493)">
<path fill-rule="evenodd" clip-rule="evenodd" d="M49.0166 47.3749H44.0199C42.9095 47.3749 42.0009 48.2891 42.0009 49.4073V57.0002H51.0355V49.4073C51.0355 48.2891 50.1269 47.3749 49.0166 47.3749ZM35.8427 21.5962H41.6426C42.4075 21.5962 43.0316 22.2252 43.0316 22.9947V26.6555C43.0316 27.0398 42.876 27.3894 42.624 27.643C42.372 27.8965 42.0245 28.054 41.6426 28.054H38.2445L36.134 29.8784C36.0366 29.9636 35.8889 29.9517 35.8043 29.8527C35.7844 29.8297 35.7693 29.803 35.7599 29.7741C35.7504 29.7452 35.7468 29.7147 35.7492 29.6843L35.8614 28.053H35.8427C35.4607 28.053 35.1133 27.8965 34.8612 27.643C34.6093 27.3894 34.4527 27.0398 34.4527 26.6555V22.9947C34.4527 22.2252 35.0768 21.5962 35.8427 21.5962ZM15.5409 16.32C22.3617 17.1808 29.1657 17.6037 35.9529 17.6007C42.7402 17.5967 49.5452 17.1659 56.3659 16.32L57.3198 16.2022V41.1311L56.3659 41.0142C49.5452 40.1762 42.7402 39.7414 35.9529 39.7335C29.1499 39.7266 22.3469 40.1446 15.5439 41.0102L14.5871 41.132V16.2002L15.5409 16.32ZM35.9529 19.3053C29.3832 19.3083 22.8283 18.922 16.2881 18.1356V39.2006C22.843 38.4053 29.399 38.022 35.9529 38.0289C42.5236 38.0369 49.0786 38.434 55.6188 39.2016V18.1336C49.0786 18.9081 42.5236 19.3013 35.9529 19.3053ZM24.3403 36.2511C24.0587 36.2511 23.8303 36.0213 23.8303 35.737C23.8303 35.4537 24.0587 35.224 24.3403 35.224H47.8501C48.1316 35.224 48.361 35.4537 48.361 35.737C48.361 36.0213 48.1316 36.2511 47.8501 36.2511H24.3403ZM38.1304 33.5045C37.8488 33.5045 37.6195 33.2737 37.6195 32.9905C37.6195 32.7072 37.8488 32.4764 38.1304 32.4764H47.8501C48.1316 32.4764 48.361 32.7072 48.361 32.9905C48.361 33.2737 48.1316 33.5045 47.8501 33.5045H38.1304ZM41.306 30.757C41.1706 30.757 41.0408 30.7029 40.945 30.6066C40.8493 30.5103 40.7956 30.3796 40.7956 30.2434C40.7956 30.1072 40.8493 29.9766 40.945 29.8803C41.0408 29.784 41.1706 29.7299 41.306 29.7299H47.8353C48.1168 29.7299 48.3462 29.9597 48.3462 30.2439C48.3462 30.5272 48.1168 30.757 47.8353 30.757H41.306ZM29.3586 31.7395H29.5141C29.6539 31.7395 29.7681 31.6246 29.7681 31.484V31.07C29.7681 30.9293 29.6539 30.8144 29.5141 30.8144H28.5947C28.4549 30.8144 28.3408 30.9293 28.3408 31.07V31.484C28.3408 31.6246 28.4549 31.7395 28.5947 31.7395H28.7522L28.45 33.2817H29.649L29.3586 31.7395ZM24.0568 33.2817C24.1759 31.7266 23.8737 31.793 25.1671 31.3057C25.8139 31.062 26.3877 30.754 26.9803 30.3806L28.0907 33.2817H24.0568ZM31.1767 30.2489C31.7191 30.5985 32.2379 30.8847 32.8531 31.0918C34.061 31.4959 34.057 31.5523 34.0491 33.2817H30.0309L31.1767 30.2489ZM27.7501 29.4892C27.7787 29.2505 27.0748 28.3383 26.9459 27.9015C26.6703 27.4607 26.5728 26.7605 26.873 26.295C26.9922 26.1097 26.941 25.9493 26.941 25.6938C26.941 23.1592 31.3559 23.1582 31.3559 25.6938C31.3559 26.0147 31.283 26.0889 31.4543 26.3425C31.7428 26.7634 31.5951 27.5112 31.351 27.9025C31.1945 28.362 30.4562 29.2297 30.5074 29.4902C30.5536 30.7916 27.7413 30.7481 27.7501 29.4892ZM38.1825 23.3157L39.982 24.5795C40.0597 24.629 40.107 24.7152 40.107 24.8083C40.107 24.8964 40.0637 24.9796 39.9918 25.0311L38.1983 26.2771C38.151 26.3177 38.09 26.3395 38.028 26.3395H38.025C37.8764 26.3395 37.7553 26.2177 37.7553 26.0681V23.5336C37.7553 23.384 37.8754 23.2632 38.024 23.2632C38.0811 23.2632 38.1373 23.281 38.1825 23.3157ZM33.6869 47.3749H38.6826C39.794 47.3749 40.7025 48.2891 40.7025 49.4073V57.0002H31.667V49.4073C31.667 48.2891 32.5755 47.3749 33.6869 47.3749ZM18.2017 42.5177H23.1974C24.3088 42.5177 25.2173 43.4329 25.2173 44.5501V46.0378H23.3529C22.4315 46.0378 21.5938 46.4161 20.9875 47.0263C20.8792 47.1362 20.7778 47.2531 20.6843 47.3759C20.5918 47.2531 20.4904 47.1362 20.3811 47.0263C19.7757 46.4161 18.938 46.0378 18.0156 46.0378H16.1818V44.5501C16.1818 43.4319 17.0913 42.5177 18.2017 42.5177ZM54.1983 42.5177H49.2026C48.0922 42.5177 47.1827 43.4329 47.1827 44.5501V46.0378H49.0166C49.9379 46.0378 50.7756 46.4161 51.382 47.0263C51.4972 47.1422 51.6045 47.2679 51.7029 47.3997C51.7994 47.2699 51.9047 47.1461 52.0189 47.0312L52.0268 47.0233C52.6351 46.4152 53.4699 46.0378 54.3844 46.0378H56.2183V44.5501C56.2183 43.4319 55.3087 42.5177 54.1983 42.5177ZM38.8686 42.5177H43.8643C44.9757 42.5177 45.8843 43.4329 45.8843 44.5501V46.0378H44.0199C43.0985 46.0378 42.2608 46.4161 41.6544 47.0263C41.5461 47.1362 41.4447 47.2531 41.3512 47.3759C41.2587 47.2531 41.1573 47.1362 41.048 47.0263C40.4427 46.4161 39.605 46.0378 38.6826 46.0378H36.8487V44.5501C36.8487 43.4319 37.7583 42.5177 38.8686 42.5177ZM33.5314 42.5177H28.5357C27.4243 42.5177 26.5157 43.4329 26.5157 44.5501V46.0378H28.3496C29.271 46.0378 30.1087 46.4161 30.7151 47.0263C30.8233 47.1362 30.9247 47.2521 31.0183 47.3759C31.1108 47.2521 31.2122 47.1362 31.3205 47.0263C31.9268 46.4161 32.7645 46.0378 33.6869 46.0378H35.5513V44.5501C35.5513 43.4319 34.6417 42.5177 33.5314 42.5177ZM28.3496 47.3749H23.3529C22.2425 47.3749 21.334 48.2891 21.334 49.4073V57.0002H30.3686V49.4073C30.3686 48.2891 29.46 47.3749 28.3496 47.3749ZM13.0199 47.3749H18.0156C19.126 47.3749 20.0356 48.2891 20.0356 49.4073V57.0002H11V49.4073C11 48.2891 11.9086 47.3749 13.0199 47.3749ZM54.3844 47.3749H59.3801C60.4914 47.3749 61.4 48.2891 61.4 49.4073V57.0002H52.3644V49.4073C52.3644 48.2891 53.274 47.3749 54.3844 47.3749Z" fill="#181818"/>
</g>
<defs>
<clipPath id="clip0_19_493">
<rect width="50.4" height="40.8" fill="white" transform="translate(11 16.2002)"/>
</clipPath>
</defs>
</svg>
