<svg width="72" height="73" viewBox="0 0 72 73" fill="none" xmlns="http://www.w3.org/2000/svg">
<rect x="0.6" y="1.2001" width="70.8" height="70.8" rx="13.8" stroke="black" stroke-opacity="0.1" stroke-width="1.2"/>
<g clip-path="url(#clip0_19_697)">
<path d="M10.377 35.206L27.8415 17.4001L46.0871 35.998L27.8415 54.6001L9.6001 35.998L10.377 35.206ZM40.6743 19.7334L42.9587 17.4001L61.2001 35.998L42.9545 54.5616L40.6449 52.2069L42.1986 50.6186L42.9629 51.3978L58.0801 35.9852L42.9629 20.5726L42.2238 21.3218L40.6743 19.7334ZM32.9478 19.9903L35.4673 17.4216L53.7087 36.0194L35.4841 54.6001L33.0401 52.1084L34.598 50.5244L35.4841 51.4277L50.6013 36.0151L35.4841 20.6025L34.4973 21.5744L32.9436 19.9903H32.9478ZM27.8415 20.5726L12.7243 35.9852L27.8415 51.3978L42.9587 35.9852L27.8415 20.5726Z" fill="#181818"/>
</g>
<defs>
<clipPath id="clip0_19_697">
<rect width="51.6" height="37.2" fill="white" transform="translate(9.6001 17.4001)"/>
</clipPath>
</defs>
</svg>
