<svg width="242" height="142" viewBox="0 0 242 142" fill="none" xmlns="http://www.w3.org/2000/svg">
<g opacity="0.4" clip-path="url(#clip0_17_147)">
<path fill-rule="evenodd" clip-rule="evenodd" d="M230.507 28.3096C229.34 24.4311 226.04 21.322 222.012 18.7614C215.541 14.6485 207.152 12.0083 201.462 10.4073C189.223 6.97548 173.598 7.47079 161.609 11.8358C147.334 17.0322 132.076 35.9384 131.661 52.5184C131.06 76.5635 156.248 76.3821 170.356 71.8092C178.502 69.169 183.604 64.1451 187.591 57.1708C191.167 50.9174 190.869 43.4743 188.471 36.7831C186.761 32.0068 184.67 27.5755 180.873 24.1215C180.152 23.467 180.101 22.3525 180.759 21.636C181.416 20.9152 182.536 20.8665 183.257 21.521C187.492 25.3686 189.895 30.2732 191.802 35.5979C194.545 43.2532 194.755 51.7621 190.664 58.9177C186.227 66.6748 180.513 72.2206 171.451 75.1571C155.485 80.3314 127.446 79.6416 128.126 52.4299C128.573 34.5498 144.998 14.1311 160.394 8.52335C173.038 3.92395 189.515 3.39319 202.422 7.01964C208.377 8.69134 217.143 11.4908 223.915 15.7939C228.716 18.8454 232.504 22.6753 233.895 27.3013C234.175 28.23 233.644 29.2118 232.709 29.4904C231.774 29.769 230.787 29.2428 230.507 28.3096Z" fill="#181818"/>
<path fill-rule="evenodd" clip-rule="evenodd" d="M216.779 40.8018C217.355 40.3728 218.49 39.5104 219.466 38.6038C223.623 34.7474 229.533 28.1976 230.435 26.9372C231.001 26.1456 232.106 25.9599 232.901 26.5215C233.696 27.0876 233.881 28.1888 233.315 28.9805C232.236 30.4885 224.324 39.245 220.112 42.7432C219.254 43.4508 218.517 43.9639 217.989 44.2204C217.526 44.4503 217.125 44.5388 216.821 44.5521C216.082 44.5874 215.065 44.1628 214.15 43.181C213.043 42.0002 211.846 39.9084 211.358 39.3246C208.083 35.4063 203.188 32.0983 198.844 29.4669C189.85 24.0139 180.749 22.2228 172.204 24.0714C175.184 26.3446 178.811 29.6748 180.811 35.0304C185.078 46.4449 180.175 59.4072 169.136 63.4228C165.269 64.8336 158.934 65.1565 153.472 63.4671C147.711 61.6848 142.953 57.7355 142.561 50.8453C142.435 48.634 143.248 45.6843 144.575 42.7168C146.463 38.4888 149.347 34.2078 151.487 32.0585C165.612 17.8844 183.326 15.9341 200.683 26.4597C205.343 29.2812 210.562 32.8678 214.075 37.0692C214.49 37.5645 215.415 39.1566 216.36 40.3418C216.478 40.4878 216.638 40.6558 216.779 40.8018ZM167.939 25.3098C170.746 27.3043 175.287 30.347 177.496 36.2554C181.069 45.8169 177.166 56.7537 167.923 60.1148C164.614 61.3177 159.193 61.5477 154.52 60.1015C150.146 58.7482 146.39 55.8781 146.092 50.6463C145.991 48.8684 146.741 46.5289 147.806 44.1452C149.505 40.3463 152.071 36.4722 153.997 34.5396C158.32 30.2011 163.014 27.123 167.939 25.3098ZM142.723 14.8462C137.964 14.3287 131.389 15.6421 124.587 17.7605C114.156 21.0066 103.214 26.1943 97.3043 30.0949C74.8727 44.8838 57.004 62.8037 48.0606 86.1501C47.7129 87.0611 46.6902 87.5167 45.7782 87.1673C44.8666 86.8223 44.4083 85.8051 44.7564 84.8941C53.9583 60.8755 72.2724 42.3717 95.3519 27.1539C105.61 20.3919 130.442 9.96807 143.107 11.3435C144.077 11.4496 144.779 12.3209 144.672 13.2894C144.567 14.2535 143.693 14.9523 142.723 14.8462Z" fill="#181818"/>
<path fill-rule="evenodd" clip-rule="evenodd" d="M36.3694 79.875C38.324 71.5607 45.7786 59.9826 49.9459 52.6589C61.5621 32.2447 86.8005 14.0814 112.116 5.4752C129.154 -0.318277 146.216 -1.76001 159.225 3.15339C160.137 3.49834 160.598 4.51558 160.251 5.42661C159.905 6.33322 158.884 6.79319 157.971 6.44823C145.622 1.7825 129.432 3.30819 113.258 8.80978C88.756 17.1373 64.2658 34.6372 53.0227 54.3969C48.9926 61.4773 41.7032 72.6353 39.8129 80.6754C39.5904 81.6218 38.6384 82.21 37.6882 81.9889C36.7379 81.7677 36.1469 80.8214 36.3694 79.875Z" fill="#181818"/>
<path fill-rule="evenodd" clip-rule="evenodd" d="M27.9589 72.8753C43.2815 36.1774 83.6404 7.81151 122.716 1.92517C123.681 1.77922 124.583 2.44253 124.729 3.40221C124.875 4.36189 124.21 5.2641 123.245 5.40562C85.314 11.1239 46.098 38.6054 31.2249 74.2286C30.8501 75.1264 29.8141 75.5509 28.9127 75.1794C28.0118 74.8079 27.5842 73.773 27.9589 72.8753ZM48.6064 85.1477C50.6015 87.6243 53.1645 89.3845 55.7555 91.1269C58.6044 93.0463 61.4889 94.9391 63.8672 97.4997C64.5297 98.2162 64.4853 99.3307 63.7686 99.9896C63.052 100.649 61.9321 100.604 61.27 99.8922C59.0787 97.5306 56.4002 95.8147 53.775 94.0457C50.8914 92.1042 48.0691 90.1097 45.8485 87.3545C45.2375 86.5939 45.3596 85.4838 46.1207 84.8779C46.8818 84.2676 47.9958 84.3915 48.6064 85.1477Z" fill="#181818"/>
<path fill-rule="evenodd" clip-rule="evenodd" d="M36.5441 81.807C30.7427 76.6504 25.2668 73.4795 19.3513 68.4378C18.6102 67.8054 18.5236 66.6909 19.1581 65.9523C19.7931 65.2138 20.9103 65.1298 21.6519 65.7622C27.5865 70.8215 33.0784 74.0058 38.8984 79.1757C39.6267 79.8258 39.6906 80.9402 39.041 81.6655C38.3914 82.3908 37.2724 82.4527 36.5441 81.807ZM63.3975 100.443C54.5989 103.004 45.2762 109.302 35.6241 115.931C25.6931 122.755 15.4326 129.941 5.09846 134.085C4.19351 134.448 3.16244 134.01 2.79789 133.108C2.43333 132.206 2.87204 131.18 3.77744 130.817C13.8852 126.762 23.9023 119.708 33.6157 113.034C43.6084 106.166 53.2961 99.7137 62.4051 97.0602C63.3421 96.7905 64.3247 97.3256 64.5987 98.2587C64.8727 99.1919 64.3345 100.169 63.3975 100.443Z" fill="#181818"/>
<path fill-rule="evenodd" clip-rule="evenodd" d="M21.6683 68.4913C15.9664 83.7843 11.6246 96.7599 7.9954 112.61C7.01052 116.913 4.43152 127.899 5.25833 132.401C5.43417 133.356 4.79742 134.276 3.8374 134.449C2.87738 134.625 1.95555 133.993 1.77971 133.033C0.894291 128.217 3.49282 116.431 4.54742 111.827C8.21254 95.818 12.5939 82.7142 18.3531 67.262C18.6928 66.3509 19.7114 65.8865 20.6262 66.2271C21.5409 66.5632 22.008 67.5803 21.6683 68.4913Z" fill="#181818"/>
<path fill-rule="evenodd" clip-rule="evenodd" d="M21.2997 68.4431C15.8908 71.2116 11.013 74.8911 6.39054 78.7961C5.64633 79.4241 4.52912 79.3313 3.89814 78.5883C3.26671 77.8497 3.35863 76.7353 4.10284 76.1073C8.93046 72.0298 14.0343 68.1998 19.6834 65.3075C20.5515 64.8653 21.6185 65.2058 22.0643 66.0726C22.5106 66.935 22.1678 67.9964 21.2997 68.4431Z" fill="#181818"/>
<path fill-rule="evenodd" clip-rule="evenodd" d="M6.67837 78.6631C2.74105 92.939 -3.11053 123.498 -3.44401 139.844C-3.46399 140.817 -4.27215 141.591 -5.24815 141.569C-6.22371 141.551 -6.99989 140.746 -6.98035 139.773C-6.64199 123.202 -0.724693 92.2049 3.26768 77.7256C3.52612 76.7925 4.50034 76.2396 5.44126 76.4961C6.38263 76.7527 6.9368 77.7256 6.67837 78.6631Z" fill="#181818"/>
<path fill-rule="evenodd" clip-rule="evenodd" d="M-5.258 138.08C0.971899 136.01 -0.848665 138.545 34.4455 112.306C35.2279 111.727 36.3367 111.886 36.9206 112.664C37.5045 113.442 37.3433 114.548 36.5614 115.132C0.43372 141.99 2.23875 139.301 -4.13813 141.419C-5.06395 141.729 -6.0666 141.229 -6.37565 140.305C-6.68426 139.385 -6.18383 138.385 -5.258 138.08ZM198.748 9.48277C182.389 4.05636 160.479 2.01316 146.424 12.6891C141.61 16.3465 133.106 23.0333 129.621 30.839C125.066 41.0417 124.117 49.9796 126.64 57.1617C129.122 64.2245 134.983 69.496 143.816 72.5829C144.737 72.9058 145.222 73.9097 144.9 74.8296C144.577 75.7451 143.566 76.2271 142.646 75.9087C132.642 72.4105 126.112 66.3251 123.301 58.3248C120.532 50.4439 121.388 40.6083 126.39 29.4061C130.12 21.052 139.125 13.8036 144.279 9.88971C159.216 -1.45842 182.48 0.376818 199.866 6.14376C200.791 6.44891 201.293 7.44841 200.984 8.36829C200.676 9.29259 199.674 9.79234 198.748 9.48277Z" fill="#181818"/>
<path fill-rule="evenodd" clip-rule="evenodd" d="M163.366 25.3368C165.629 26.6547 167.87 29.3259 169.516 32.2978C171.151 35.2476 172.193 38.4672 172.235 40.8156C172.374 48.6345 170.371 54.0433 167.308 57.6166C164.147 61.305 159.824 63.105 155.272 63.503C154.299 63.587 153.441 62.8705 153.355 61.902C153.269 60.9335 153.99 60.0799 154.962 59.9959C158.606 59.6775 162.088 58.2845 164.618 55.3302C167.245 52.2654 168.818 47.5819 168.699 40.8774C168.664 38.9758 167.745 36.3886 166.42 34.0004C165.105 31.6255 163.388 29.4276 161.58 28.375C160.738 27.8841 160.454 26.8051 160.947 25.9648C161.439 25.1289 162.523 24.8459 163.366 25.3368Z" fill="#181818"/>
<path fill-rule="evenodd" clip-rule="evenodd" d="M153.345 6.52654C156.269 6.50188 159.115 6.51596 162.027 6.82593C162.512 6.87877 162.863 7.31555 162.811 7.79812C162.758 8.28068 162.322 8.62939 161.837 8.57655C158.995 8.27362 156.215 8.26308 153.361 8.28773C152.873 8.29478 152.473 7.9038 152.469 7.41771C152.464 6.93162 152.857 6.53358 153.345 6.52654ZM143.81 12.9831C146.42 11.6868 148.866 11.3804 151.787 11.1972C152.274 11.1655 152.694 11.5354 152.725 12.0215C152.755 12.5075 152.384 12.9232 151.897 12.9549C149.228 13.1204 146.986 13.374 144.6 14.5576C144.163 14.7759 143.632 14.5998 143.414 14.1631C143.196 13.7298 143.374 13.2014 143.81 12.9831ZM138.08 17.7911C140.455 17.2381 140.296 17.2522 142.882 17.0268C143.368 16.9845 143.797 17.3438 143.839 17.8299C143.881 18.3124 143.521 18.7386 143.035 18.7809C140.584 18.9922 140.735 18.9817 138.484 19.5065C138.009 19.6192 137.532 19.3234 137.421 18.8514C137.31 18.3758 137.605 17.9038 138.08 17.7911ZM131.994 23.9412C134.58 23.1839 137.381 22.8246 140.085 22.9373C140.572 22.9549 140.952 23.3671 140.932 23.8531C140.912 24.3357 140.499 24.7161 140.012 24.695C137.499 24.5928 134.896 24.9275 132.492 25.632C132.024 25.7658 131.532 25.4981 131.395 25.0331C131.257 24.5682 131.526 24.0786 131.994 23.9412ZM127.714 30.6197C130.129 29.4538 132.544 29.1191 135.2 28.9219C135.687 28.8866 136.111 29.2495 136.148 29.732C136.185 30.2181 135.819 30.6408 135.333 30.6795C132.904 30.8592 130.691 31.141 128.484 32.2048C128.045 32.4161 127.516 32.2329 127.303 31.7961C127.091 31.3558 127.275 30.831 127.714 30.6197ZM124.829 38.8444C126.657 37.2206 129.035 36.9353 131.383 36.5619C131.865 36.4845 132.319 36.812 132.396 37.2911C132.474 37.7701 132.145 38.2245 131.663 38.302C129.648 38.6225 127.574 38.7669 126.006 40.1583C125.642 40.4823 125.082 40.4507 124.758 40.0879C124.433 39.7251 124.465 39.1685 124.829 38.8444ZM123.542 47.344C125.527 46.5092 126.938 45.8857 128.97 45.4806C129.448 45.3855 129.914 45.6955 130.009 46.1745C130.104 46.65 129.793 47.115 129.315 47.2101C127.411 47.587 126.091 48.1858 124.231 48.9678C123.782 49.158 123.262 48.9466 123.072 48.4993C122.882 48.0519 123.093 47.5342 123.542 47.344ZM124.44 55.2306C125.656 54.3923 125.565 54.4134 126.849 53.8674C127.297 53.6772 127.817 53.8886 128.009 54.3359C128.2 54.7832 127.991 55.2975 127.541 55.4913C126.423 55.9633 126.505 55.9492 125.446 56.6783C125.045 56.953 124.493 56.8544 124.216 56.4529C123.938 56.0548 124.039 55.5053 124.44 55.2306ZM171.228 27.1219C170.034 28.3689 168.808 29.5313 167.537 30.6972C167.179 31.0283 166.619 31.0036 166.288 30.6478C165.957 30.2886 165.98 29.732 166.339 29.4044C167.581 28.2632 168.78 27.1255 169.948 25.9067C170.284 25.5545 170.844 25.5404 171.198 25.875C171.551 26.2096 171.565 26.7697 171.228 27.1219ZM175.467 30.9684C174.16 31.9511 174.243 31.8913 173.036 32.8634C172.656 33.1664 172.099 33.11 171.792 32.7296C171.485 32.3527 171.545 31.7962 171.924 31.4932C173.153 30.5034 173.069 30.5668 174.399 29.563C174.788 29.2706 175.343 29.3446 175.638 29.732C175.932 30.1195 175.856 30.6725 175.467 30.9684ZM177.721 35.4242C175.303 37.0163 172.962 37.9533 170.333 39.0311C169.882 39.2143 169.365 38.9994 169.179 38.5521C168.993 38.1012 169.209 37.587 169.66 37.4003C172.18 36.3682 174.429 35.4806 176.747 33.9554C177.154 33.6877 177.703 33.8004 177.972 34.2054C178.24 34.6105 178.128 35.1565 177.721 35.4242ZM179.436 43.5539C176.597 44.7057 173.629 45.9737 170.561 46.3436C170.076 46.3999 169.635 46.0548 169.577 45.5722C169.518 45.0896 169.865 44.6528 170.349 44.593C173.263 44.2442 176.074 43.015 178.77 41.923C179.222 41.7398 179.738 41.9547 179.922 42.4056C180.106 42.8564 179.888 43.3707 179.436 43.5539ZM178.44 50.6797C175.1 51.3383 171.841 51.7998 168.458 51.363C167.974 51.2996 167.633 50.8558 167.696 50.3732C167.759 49.8906 168.203 49.5525 168.687 49.6159C171.877 50.028 174.948 49.5736 178.098 48.9537C178.576 48.8586 179.042 49.1721 179.136 49.6476C179.231 50.1231 178.919 50.5881 178.44 50.6797ZM173.244 58.8305C170.612 58.6262 167.954 58.6403 165.347 58.2176C164.866 58.1401 164.538 57.6892 164.616 57.2067C164.694 56.7276 165.149 56.4 165.631 56.481C168.188 56.8931 170.797 56.8755 173.38 57.0728C173.866 57.1115 174.231 57.5342 174.194 58.0203C174.156 58.5029 173.731 58.8657 173.244 58.8305ZM79.5062 19.5488C79.5865 20.3484 79.5815 20.2427 79.7379 21.0212C79.8337 21.5002 79.5228 21.9616 79.0443 22.0567C78.5658 22.1518 78.0997 21.8454 78.0038 21.3664C77.8295 20.4998 77.8362 20.6161 77.7467 19.7249C77.6983 19.2388 78.0534 18.8091 78.5389 18.7598C79.0245 18.7105 79.4581 19.0662 79.5062 19.5488ZM73.3998 24.8147C73.4614 25.4699 73.4981 25.3924 73.6746 26.1075C73.7913 26.5795 73.5013 27.055 73.0274 27.1712C72.5538 27.2875 72.0743 26.9987 71.9576 26.5267C71.7461 25.6742 71.7128 25.7658 71.6393 24.9768C71.5937 24.4942 71.9512 24.0645 72.4371 24.0187C72.9231 23.9729 73.3546 24.3287 73.3998 24.8147ZM65.5138 28.0906C66.1415 29.3058 66.6862 30.2674 67.0749 31.532C67.2181 31.9969 66.9553 32.4901 66.4888 32.6309C66.0223 32.7754 65.5276 32.5112 65.3843 32.0462C65.0275 30.8874 64.5172 30.0138 63.941 28.8972C63.7179 28.464 63.8894 27.9321 64.3233 27.7102C64.7573 27.4883 65.2906 27.6573 65.5138 28.0906ZM60.0967 33.7335C60.804 35.9702 61.6319 38.1153 62.1179 40.4225C62.218 40.898 61.9117 41.3629 61.4342 41.4651C60.9564 41.5637 60.4875 41.2573 60.387 40.7818C59.9135 38.5345 59.1001 36.4457 58.4101 34.2618C58.2633 33.7969 58.5222 33.3037 58.9879 33.1558C59.4534 33.0114 59.9503 33.2685 60.0967 33.7335ZM53.0414 41.2079C54.7581 42.8776 55.8789 45.1178 57.0682 47.1608C57.313 47.5835 57.169 48.1224 56.7468 48.3655C56.3245 48.6085 55.783 48.4641 55.5383 48.0449C54.4278 46.1358 53.4082 44.0294 51.8053 42.4655C51.4563 42.1273 51.4499 41.5708 51.7912 41.2221C52.1325 40.8733 52.6927 40.8663 53.0414 41.2079ZM49.0616 45.7096C49.6558 47.7948 50.4833 49.7638 51.3297 51.761C51.5192 52.2084 51.3081 52.7262 50.8582 52.9164C50.4087 53.103 49.8895 52.8917 49.7003 52.4444C48.8257 50.3803 47.9741 48.3478 47.3601 46.1886C47.2271 45.7237 47.5002 45.2341 47.9698 45.1037C48.4392 44.9699 48.9283 45.2411 49.0616 45.7096ZM42.2083 53.089C43.8638 55.2869 44.9768 57.8336 46.5145 60.1091C46.7872 60.5106 46.6797 61.0601 46.2747 61.3314C45.8701 61.6026 45.3202 61.4969 45.0475 61.0918C43.5267 58.841 42.4307 56.3225 40.7933 54.1457C40.5008 53.7582 40.58 53.2052 40.9704 52.9128C41.3609 52.6205 41.9154 52.7015 42.2083 53.089ZM38.3979 60.2218C39.229 62.7403 41.0681 65.1884 42.4746 67.4216C42.7338 67.8337 42.6086 68.3761 42.1955 68.6368C41.7821 68.8939 41.236 68.7706 40.9765 68.3585C39.4974 66.0091 37.5919 63.4201 36.7176 60.7713C36.5655 60.3099 36.8181 59.8097 37.2817 59.6582C37.7454 59.5068 38.2454 59.7568 38.3979 60.2218ZM34.7406 68.7953C36.5864 70.6622 38.4934 72.4515 40.3473 74.3113C40.6914 74.6565 40.6896 75.2131 40.3434 75.5583C39.9972 75.9 39.437 75.8964 39.0928 75.5548C37.2372 73.6914 35.3284 71.8985 33.4809 70.0316C33.1385 69.6864 33.1428 69.1264 33.4904 68.7847C33.8381 68.4466 34.3983 68.4501 34.7406 68.7953ZM15.7576 77.3336C12.2036 79.2779 8.55097 81.1201 5.41926 83.7056C5.04402 84.0191 4.48594 83.9662 4.17436 83.5928C3.86278 83.2195 3.91442 82.6629 4.29001 82.353C7.50837 79.6936 11.254 77.788 14.9063 75.7908C15.3339 75.5583 15.8719 75.7133 16.107 76.1395C16.3419 76.5657 16.1852 77.1011 15.7576 77.3336ZM14.4339 84.1811C10.8357 86.2205 7.6898 88.9856 4.39258 91.4442C4.00213 91.7331 3.44722 91.6556 3.15509 91.2646C2.86261 90.8771 2.94255 90.3241 3.33299 90.0353C6.68928 87.5309 9.89738 84.7235 13.5599 82.6489C13.984 82.4093 14.5244 82.5572 14.7656 82.9799C15.0068 83.4026 14.8583 83.9416 14.4339 84.1811ZM12.2047 91.9339C8.37308 93.8078 5.19256 96.4601 1.78145 98.9364C1.38712 99.2217 0.83364 99.1336 0.546463 98.7426C0.258933 98.3481 0.345926 97.7986 0.740263 97.5133C4.23448 94.9772 7.5013 92.272 11.4259 90.3558C11.8641 90.141 12.3943 90.3206 12.6093 90.7574C12.824 91.1942 12.6429 91.7225 12.2047 91.9339ZM9.97518 98.6898C6.66027 100.426 3.61062 102.357 0.564498 104.512C0.166978 104.794 -0.385456 104.703 -0.668388 104.308C-0.951321 103.91 -0.857949 103.36 -0.460429 103.079C2.65112 100.874 5.76657 98.9011 9.15291 97.1329C9.58509 96.9039 10.1198 97.0695 10.3469 97.5028C10.5736 97.9325 10.4074 98.4644 9.97518 98.6898ZM7.02774 108.658C4.30982 109.697 1.01188 111.3 -0.941765 113.473C-1.26714 113.836 -1.82664 113.868 -2.1902 113.54C-2.55377 113.216 -2.58454 112.66 -2.25917 112.297C-0.131873 109.933 3.43449 108.144 6.39361 107.013C6.84949 106.837 7.36125 107.066 7.53596 107.52C7.71102 107.971 7.48326 108.482 7.02774 108.658ZM5.29583 116.541C2.191 117.496 -1.02665 118.806 -3.48781 120.979C-3.85279 121.3 -4.41193 121.268 -4.73589 120.905C-5.05985 120.543 -5.02625 119.983 -4.66127 119.662C-2.01302 117.323 1.43416 115.886 4.77489 114.861C5.24102 114.717 5.7365 114.977 5.88009 115.442C6.02403 115.907 5.76197 116.4 5.29583 116.541ZM3.93528 124.224C1.29198 125.435 -0.977129 126.668 -3.14262 128.605C-3.50513 128.933 -4.06464 128.901 -4.39107 128.542C-4.71751 128.179 -4.6878 127.623 -4.32493 127.295C-2.02186 125.235 0.383767 123.914 3.1947 122.624C3.63784 122.42 4.16375 122.614 4.36782 123.054C4.57224 123.498 4.37842 124.019 3.93528 124.224ZM2.86332 132.473C-0.0452226 133.392 -2.76774 135.203 -4.91732 137.359C-5.26144 137.704 -5.82165 137.704 -6.16789 137.362C-6.51412 137.02 -6.51589 136.46 -6.17177 136.115C-3.82485 133.766 -0.846279 131.797 2.32928 130.793C2.79436 130.648 3.29196 130.906 3.43909 131.367C3.58657 131.832 3.32875 132.325 2.86332 132.473Z" fill="#181818"/>
</g>
<defs>
<clipPath id="clip0_17_147">
<rect width="141.6" height="241.2" fill="white" transform="matrix(-4.37114e-08 1 1 4.37114e-08 0.199951 0.00012207)"/>
</clipPath>
</defs>
</svg>
