<svg width="28" height="25" viewBox="0 0 28 25" fill="none" xmlns="http://www.w3.org/2000/svg">
<path fill-rule="evenodd" clip-rule="evenodd" d="M23.9944 0.303315L27.6498 4.58437C27.7846 4.69038 27.8714 4.85618 27.8714 5.0421C27.8714 5.09755 27.8638 5.15083 27.8493 5.20193L27.8999 23.5205C27.8999 23.8391 27.6433 24.0978 27.3274 24.0978V24.1H0.874567C0.55706 24.1 0.299927 23.8401 0.299927 23.5205V5.0421C0.299927 4.87901 0.366771 4.73169 0.474044 4.62623L4.21352 0.298966C4.32672 0.169039 4.48521 0.102173 4.64477 0.102173V0.0999985H23.5572C23.7324 0.0999985 23.8893 0.178824 23.9944 0.303315ZM2.13543 4.4626H26.0288L23.2942 1.25901H4.90352L2.13543 4.4626ZM19.2038 13.6928C19.5757 13.7091 19.8404 13.8325 19.993 14.0668C20.407 14.6926 19.8873 15.3585 19.449 15.7466L14.5603 20.0755C14.1441 20.5392 13.5517 20.5392 13.1361 20.0755C12.5684 19.4074 9.69686 16.829 8.63922 15.6281C8.27266 15.2123 7.81931 14.6442 8.20097 14.0668C8.35406 13.8325 8.6182 13.7091 8.99069 13.6928H11.3857V9.53028C11.3857 9.26879 11.5976 9.05515 11.8569 9.05515H16.3435C16.6028 9.05515 16.8152 9.26934 16.8152 9.53028V13.6928H19.2038Z" fill="#FDFDFD"/>
</svg>
