<svg width="72" height="73" viewBox="0 0 72 73" fill="none" xmlns="http://www.w3.org/2000/svg">
<rect x="0.6" y="1.40005" width="70.8" height="70.8" rx="13.8" stroke="black" stroke-opacity="0.1" stroke-width="1.2"/>
<g clip-path="url(#clip0_19_425)">
<path d="M30.4697 19.9322C30.6432 19.8838 30.8235 19.8581 31.0104 19.8581C31.2675 19.8581 31.5111 19.9064 31.7381 19.9934C31.9718 20.0836 32.1821 20.2158 32.359 20.3769C32.5359 20.5413 32.6795 20.7346 32.7763 20.9538C32.8698 21.1632 32.9232 21.3953 32.9232 21.6337V22.462H36.4249C37.2727 21.2792 38.6247 19.9193 39.5527 18.9879C39.8498 18.6882 40.1068 18.4304 40.2804 18.2467V18.2435C40.2837 18.2371 40.2904 18.2306 40.2971 18.2274C40.6442 17.8084 41.0181 17.5345 41.3853 17.3798C41.8092 17.1994 42.2298 17.1768 42.597 17.2703C42.7439 17.3089 42.8841 17.3637 43.011 17.4378C43.1412 17.512 43.2613 17.6022 43.3681 17.7085C43.475 17.8117 43.5684 17.9309 43.6485 18.063C43.7253 18.1919 43.7887 18.3337 43.8321 18.482C43.9356 18.8333 43.9423 19.2296 43.8188 19.6421C43.712 20.0031 43.505 20.3737 43.1745 20.7282L43.1645 20.7378C43.1178 20.7894 43.031 20.8796 42.9175 21.0085L42.7573 21.1858H42.8274C42.8975 21.1858 42.9676 21.189 43.0377 21.1955C43.1011 21.2019 43.1679 21.2083 43.2313 21.218H50.5551C50.7888 21.218 51.0158 21.2696 51.2227 21.3598C51.433 21.4533 51.6267 21.5918 51.7835 21.7659C51.9404 21.9367 52.0706 22.1397 52.1574 22.3653C52.2409 22.5812 52.2876 22.8197 52.2876 23.0646C52.2876 23.2483 52.2609 23.4288 52.2108 23.6028C52.1875 23.6866 52.1574 23.7671 52.124 23.8445H52.1908C52.4278 23.8445 52.6515 23.896 52.8584 23.9863C53.0687 24.0797 53.2623 24.2215 53.4192 24.3923C53.5761 24.5631 53.703 24.7662 53.7898 24.9917C53.8732 25.2077 53.9199 25.4461 53.9199 25.6911C53.9199 25.936 53.8732 26.1745 53.7898 26.3904C53.703 26.616 53.5761 26.819 53.4192 26.9898C53.259 27.1606 53.0687 27.2992 52.8584 27.3958C52.6515 27.4893 52.4278 27.5376 52.1908 27.5376H52.1307C52.1674 27.6182 52.1975 27.702 52.2242 27.7858C52.2776 27.963 52.3043 28.1467 52.3043 28.3336V28.3369C52.3043 28.5818 52.2576 28.8203 52.1741 29.0362C52.0873 29.2618 51.9605 29.4648 51.8036 29.6356C51.6433 29.8064 51.4531 29.9482 51.2428 30.0417C51.0358 30.1351 50.8121 30.1834 50.5751 30.1834H50.4249C50.4583 30.2576 50.485 30.3381 50.505 30.4155C50.5518 30.5798 50.5751 30.7571 50.5751 30.9343V30.9408C50.5751 31.1857 50.5284 31.4177 50.445 31.6336C50.3582 31.8592 50.2313 32.0623 50.0744 32.2331C49.9142 32.4039 49.7239 32.5424 49.5136 32.6391C49.3067 32.7326 49.083 32.7809 48.846 32.7809H48.5723V38.166C49.7974 39.0425 51.2061 40.4412 52.1741 41.4015C52.4812 41.7077 52.7449 41.9687 52.9419 42.1524L52.9485 42.1556C52.9552 42.1621 52.9586 42.1653 52.9652 42.1717C53.3959 42.5294 53.6763 42.9129 53.8365 43.29C54.0201 43.725 54.0434 44.1537 53.9466 44.5307C53.9066 44.679 53.8498 44.824 53.7764 44.9561C53.6996 45.0915 53.6062 45.2139 53.4993 45.3235C53.3892 45.4363 53.2657 45.533 53.1321 45.6103C52.9986 45.6876 52.8517 45.7521 52.6949 45.8004C52.331 45.9068 51.9137 45.9132 51.4865 45.7875C51.1092 45.6748 50.722 45.4588 50.3515 45.114C50.2981 45.0657 50.1979 44.9722 50.0711 44.8562L49.8908 44.6918V44.7724C49.8908 44.8433 49.8875 44.9142 49.8808 44.9883C49.8741 45.0528 49.8675 45.1172 49.8574 45.1881V52.5261C49.8574 52.7646 49.804 52.9966 49.7106 53.2061C49.6138 53.4252 49.4702 53.6186 49.2933 53.783C49.1164 53.9473 48.9061 54.0794 48.6724 54.1665C48.4454 54.2535 48.2017 54.3018 47.9447 54.3018C47.7511 54.3018 47.5642 54.2728 47.3872 54.2245C47.3004 54.1987 47.217 54.1697 47.1369 54.1342V54.2148C47.1369 54.4533 47.0835 54.6853 46.99 54.8948C46.8932 55.1139 46.7497 55.3073 46.5727 55.4716C46.3958 55.636 46.1855 55.7681 45.9518 55.8551C45.7249 55.9421 45.4812 55.9905 45.2241 55.9905C44.9671 55.9905 44.7234 55.9421 44.4964 55.8551C44.2628 55.7649 44.0525 55.6328 43.8755 55.4716C43.6986 55.3073 43.5551 55.1139 43.4583 54.8948C43.3648 54.6853 43.3114 54.4533 43.3114 54.2148V54.1439C43.2346 54.1793 43.1512 54.2084 43.0711 54.2341L43.0577 54.2406C42.8741 54.2954 42.6805 54.3211 42.4869 54.3211H42.4835C42.2265 54.3211 41.9828 54.2728 41.7558 54.1858C41.5222 54.0956 41.3119 53.9634 41.1349 53.8023C40.958 53.6379 40.8145 53.4446 40.7177 53.2254C40.6242 53.016 40.5708 52.7839 40.5708 52.5455V52.3811C40.494 52.4133 40.4139 52.4423 40.3305 52.4649C40.1569 52.5132 39.9766 52.539 39.7897 52.539C39.5326 52.539 39.289 52.4907 39.062 52.4037C38.8283 52.3134 38.618 52.1813 38.4411 52.0202C38.2642 51.8558 38.1206 51.6624 38.0238 51.4433C37.9303 51.2338 37.8769 51.0018 37.8769 50.7633V49.9351H34.3786C33.5307 51.1178 32.1788 52.4778 31.2508 53.4091C30.9503 53.7088 30.6966 53.9667 30.5231 54.1503L30.503 54.1729C30.1559 54.5886 29.7853 54.8593 29.4181 55.0172C28.9942 55.1977 28.5736 55.2203 28.2064 55.1268C28.0595 55.0881 27.9193 55.0334 27.7925 54.9592C27.6623 54.8851 27.5421 54.7949 27.4353 54.6885C27.3318 54.5886 27.2417 54.4726 27.1649 54.3437L27.1582 54.3308C27.0815 54.2019 27.0214 54.0601 26.9746 53.9119C26.8712 53.5606 26.8645 53.1642 26.988 52.7517C27.0948 52.3908 27.3018 52.0202 27.6323 51.6657L27.6423 51.656C27.689 51.6044 27.7758 51.5142 27.8893 51.3853L28.0495 51.2081H27.9794C27.9093 51.2081 27.8392 51.2048 27.7691 51.1984C27.7057 51.1919 27.6389 51.1855 27.5755 51.1758H20.1649C19.9312 51.1758 19.7042 51.1243 19.4973 51.034C19.287 50.9406 19.0933 50.7988 18.9365 50.628C18.7796 50.4572 18.6494 50.2542 18.5659 50.0286C18.4825 49.8126 18.4357 49.5742 18.4357 49.3292C18.4357 49.1456 18.4624 48.9651 18.5125 48.7911C18.5359 48.7073 18.5659 48.6267 18.5993 48.5494H18.5325C18.2955 48.5494 18.0719 48.4978 17.8649 48.4076C17.6546 48.3141 17.461 48.1723 17.3041 48.0015C17.1472 47.8307 17.0204 47.6277 16.9336 47.4021C16.8468 47.1894 16.8001 46.9509 16.8001 46.706C16.8001 46.4611 16.8468 46.2226 16.9302 46.0067C17.017 45.7811 17.1439 45.5781 17.3008 45.4073C17.461 45.2365 17.6513 45.0979 17.8616 45.0012C18.0685 44.9078 18.2922 44.8594 18.5292 44.8594H18.5893C18.5526 44.7789 18.5225 44.6951 18.4958 44.6113C18.4424 44.434 18.4157 44.2503 18.4157 44.0634V44.0602C18.4157 43.8153 18.4624 43.5768 18.5459 43.3609C18.6327 43.1353 18.7595 42.9323 18.9164 42.7615C19.0767 42.5907 19.2669 42.4489 19.4772 42.3554C19.6842 42.262 19.9078 42.2136 20.1449 42.2136H20.2951C20.265 42.1395 20.2383 42.0654 20.215 41.988L20.2116 41.9816C20.1649 41.8172 20.1415 41.64 20.1415 41.4627V41.4563C20.1415 41.2114 20.1882 40.9793 20.2717 40.7634C20.3585 40.5378 20.4853 40.3348 20.6422 40.164C20.8025 39.9932 20.9927 39.8514 21.203 39.758C21.41 39.6645 21.6337 39.6162 21.8707 39.6162H22.2278V34.2311C21.0027 33.3545 19.5941 31.9559 18.626 30.9956C18.3156 30.6862 18.0519 30.4251 17.8549 30.2415L17.8382 30.2253C17.4076 29.8676 17.1239 29.4841 16.9636 29.1071C16.78 28.672 16.7567 28.2434 16.8535 27.8664C16.8935 27.7181 16.9503 27.5731 17.0237 27.441C17.1005 27.3056 17.194 27.1832 17.3008 27.0736C17.4109 26.9608 17.5344 26.8641 17.668 26.7868C17.8015 26.7094 17.9484 26.645 18.1053 26.5966C18.4691 26.4903 18.8864 26.4838 19.3137 26.6095C19.6909 26.7223 20.0781 26.9382 20.4486 27.2831C20.502 27.3314 20.6022 27.4249 20.729 27.5409L20.9093 27.7052V27.6247C20.9093 27.5538 20.9126 27.4829 20.9193 27.4087C20.926 27.3443 20.9326 27.2798 20.9427 27.2089V19.8677C20.9427 19.6292 20.9961 19.3972 21.0895 19.1877C21.1863 18.9686 21.3299 18.7752 21.5068 18.6109C21.6837 18.4465 21.894 18.3144 22.1277 18.2274C22.3547 18.1404 22.5984 18.092 22.8554 18.092C23.049 18.092 23.2359 18.121 23.4129 18.1694C23.4997 18.1952 23.5831 18.2242 23.6632 18.2596V18.1758C23.6632 17.9374 23.7166 17.7053 23.8101 17.4958C23.9069 17.2767 24.0504 17.0833 24.2274 16.919C24.4043 16.7546 24.6146 16.6225 24.8483 16.5355C25.0753 16.4485 25.3223 16.4001 25.5793 16.4001C25.8363 16.4001 26.08 16.4485 26.307 16.5355C26.5407 16.6257 26.751 16.7579 26.9279 16.919C27.1048 17.0833 27.2484 17.2767 27.3452 17.4958C27.4386 17.7053 27.4921 17.9374 27.4921 18.1758V18.2467C27.5755 18.2113 27.659 18.1791 27.7457 18.1533C27.9293 18.0985 28.123 18.0695 28.3166 18.0695H28.3199C28.5769 18.0695 28.8206 18.1178 29.0476 18.2048C29.2813 18.2951 29.4916 18.4272 29.6685 18.5883C29.8454 18.7527 29.989 18.946 30.0858 19.1652C30.1792 19.3747 30.2326 19.6067 30.2326 19.8452V20.0095C30.3061 19.9837 30.3862 19.9547 30.4697 19.9322ZM23.523 34.6919V39.6162H27.5655H27.5688C27.5955 39.6162 27.6222 39.6194 27.6489 39.6226C27.6623 39.6258 27.6756 39.6258 27.6857 39.6291C27.7257 39.6258 27.7691 39.6226 27.8125 39.6194C27.8693 39.6162 27.926 39.6129 27.9761 39.6129H30.216V34.2891C30.216 33.4577 30.2427 33.4416 30.4997 33.2836C30.6065 33.2192 30.7734 33.1161 31.0338 32.7874C31.2775 32.4844 31.4678 32.1428 31.6013 31.7754C31.7281 31.4209 31.7949 31.0407 31.7949 30.6475V27.6214C31.7949 27.5957 31.7949 27.5731 31.7915 27.5473V21.637C31.7915 21.5435 31.7715 21.4533 31.7381 21.3727L31.7348 21.3663C31.6947 21.2792 31.638 21.1987 31.5646 21.131C31.4945 21.0666 31.411 21.0118 31.3175 20.9763L31.3109 20.9731C31.2207 20.9376 31.1172 20.9183 31.0104 20.9183C30.9036 20.9183 30.8035 20.9376 30.71 20.9731C30.6132 21.0085 30.5264 21.0633 30.4563 21.131C30.3829 21.1987 30.3261 21.276 30.2861 21.363C30.2493 21.4468 30.2293 21.5371 30.2293 21.6337V24.7919V24.8081C30.2293 24.8983 30.1525 24.9724 30.0591 24.9724H29.2679C29.1745 24.9724 29.0977 24.8983 29.0977 24.8081V19.8516C29.0977 19.7549 29.0777 19.6647 29.0409 19.5809C29.0009 19.4939 28.9441 19.4133 28.8707 19.3489C28.7973 19.2812 28.7138 19.2264 28.617 19.191C28.5269 19.1555 28.4234 19.1362 28.3166 19.1362C28.2097 19.1362 28.1096 19.1555 28.0161 19.191C27.9193 19.2264 27.8325 19.2812 27.7624 19.3489C27.689 19.4166 27.6323 19.4939 27.5922 19.5809C27.5555 19.6647 27.5354 19.7549 27.5354 19.8516V24.8081C27.5354 24.8983 27.4587 24.9724 27.3652 24.9724H26.5273C26.4339 24.9724 26.3571 24.8983 26.3571 24.8081V18.1791C26.3571 18.0856 26.3371 17.9954 26.3037 17.9148L26.3003 17.9083C26.2603 17.8213 26.2035 17.7408 26.1301 17.6763C26.0567 17.6086 25.9699 17.5539 25.8764 17.5184C25.7863 17.483 25.6828 17.4636 25.576 17.4636C25.4725 17.4636 25.3723 17.483 25.2856 17.5152H25.2789C25.1821 17.5506 25.0953 17.6054 25.0252 17.6731C24.9517 17.7408 24.895 17.8181 24.8549 17.9051C24.8182 17.9889 24.7982 18.0792 24.7982 18.1758V24.8081C24.7982 24.8983 24.7214 24.9724 24.6279 24.9724H23.8101C23.7166 24.9724 23.6399 24.8983 23.6399 24.8081V19.8677C23.6399 19.771 23.6198 19.6808 23.5831 19.597C23.5431 19.51 23.483 19.4294 23.4129 19.365C23.3394 19.2973 23.256 19.2425 23.1592 19.2071C23.069 19.1716 22.9656 19.1523 22.8587 19.1523C22.7519 19.1523 22.6518 19.1716 22.5583 19.2071C22.4648 19.2425 22.3814 19.2941 22.3113 19.3585L22.3046 19.365C22.2312 19.4327 22.1744 19.51 22.1344 19.6002C22.0977 19.684 22.0776 19.7743 22.0776 19.8709C22.0776 21.0698 22.0709 22.4136 22.0676 23.7542C22.0609 24.937 22.0576 26.1165 22.0576 27.6247L21.9641 29.0813C21.9608 29.1393 21.9241 29.1941 21.8673 29.2199L21.5669 29.3552C21.5402 29.3681 21.5135 29.3778 21.4801 29.3778C21.4267 29.3778 21.3733 29.3713 21.3199 29.3552C21.2665 29.3391 21.2164 29.3198 21.173 29.2908C21.0728 29.236 20.946 29.149 20.8125 29.0458C20.6723 28.9363 20.5287 28.817 20.3885 28.6978C20.0914 28.44 19.781 28.1532 19.6642 28.0436C19.4438 27.8406 19.2269 27.7117 19.0266 27.6408C18.8129 27.5699 18.616 27.5634 18.4524 27.6118C18.3957 27.6279 18.3389 27.6537 18.2855 27.6859C18.2321 27.7181 18.1854 27.7536 18.142 27.7987C18.0986 27.8406 18.0619 27.8921 18.0318 27.9437C18.0018 27.9985 17.9784 28.0565 17.9617 28.1177C17.9116 28.3079 17.9317 28.5302 18.0452 28.7687C18.1487 28.9878 18.3256 29.2134 18.596 29.439L18.6093 29.4487L18.6394 29.4745L18.6594 29.4938C18.7695 29.5969 18.9231 29.7452 19.1167 29.9321C20.0113 30.7958 21.6871 32.4103 22.9756 33.3191C22.9889 33.3288 23.0023 33.3384 23.0156 33.3513C23.1058 33.4512 23.1825 33.5576 23.2526 33.6704C23.3227 33.7832 23.3795 33.9024 23.4262 34.0249C23.4629 34.1312 23.493 34.2375 23.5097 34.3503C23.5264 34.4567 23.533 34.5695 23.5297 34.6887L23.523 34.6919ZM31.5045 33.8927V39.6548C31.9718 39.7225 32.4158 39.8643 32.8264 40.0706C33.2803 40.2994 33.6943 40.612 34.0515 40.9826H37.9437C38.0238 40.5443 38.1674 40.1221 38.371 39.7322C38.608 39.2746 38.9218 38.8621 39.299 38.5043V32.7455C38.8316 32.6778 38.3877 32.536 37.9771 32.3297C37.5198 32.1009 37.1092 31.7883 36.752 31.4177H32.8564C32.7763 31.856 32.6328 32.2782 32.4291 32.6681C32.1955 33.1193 31.8783 33.535 31.5045 33.8927ZM37.8769 44.7789V42.2297H34.4253C33.6108 42.2297 33.5975 42.204 33.4406 41.9526C33.3772 41.8495 33.2803 41.6916 32.9632 41.437C32.6695 41.2017 32.3423 41.018 31.9885 40.8923C31.648 40.7699 31.2808 40.7054 30.9036 40.7054H27.9761C27.9527 40.7054 27.9293 40.7054 27.9026 40.7086H21.8773C21.7872 40.7086 21.7038 40.728 21.6236 40.7634C21.5402 40.8021 21.4667 40.8569 21.4033 40.9246C21.3399 40.9955 21.2865 41.0792 21.2498 41.1695C21.2164 41.2597 21.1964 41.3564 21.1964 41.4627C21.1964 41.5659 21.2164 41.6658 21.2498 41.756C21.2865 41.8495 21.3399 41.9333 21.4033 42.0041C21.4667 42.0718 21.5402 42.1266 21.6236 42.1653C21.7004 42.2007 21.7872 42.2201 21.8773 42.2201H25.2388H25.2555C25.349 42.2201 25.4258 42.2942 25.4258 42.3844V43.1482C25.4258 43.2384 25.349 43.3125 25.2555 43.3125H20.1482C20.0581 43.3125 19.9746 43.3319 19.8945 43.3673C19.811 43.406 19.7343 43.4608 19.6708 43.5285C19.6074 43.5994 19.554 43.6832 19.5173 43.7734C19.4839 43.8636 19.4639 43.9603 19.4639 44.0667C19.4639 44.1698 19.4839 44.2697 19.5173 44.3599C19.554 44.4534 19.6074 44.5372 19.6708 44.6081C19.7343 44.6757 19.8077 44.7305 19.8945 44.7692C19.9713 44.8046 20.0581 44.824 20.1482 44.824H25.2522C25.3456 44.824 25.4224 44.8981 25.4224 44.9883V45.7972C25.4224 45.8875 25.3456 45.9616 25.2522 45.9616H18.5292C18.4391 45.9616 18.3556 45.9809 18.2755 46.0164C18.1921 46.055 18.1153 46.1098 18.0552 46.1775C17.9918 46.2484 17.9384 46.3322 17.9016 46.4256C17.8683 46.5159 17.8482 46.6125 17.8482 46.7189C17.8482 46.8252 17.8683 46.9219 17.9016 47.0122C17.935 47.1024 17.9851 47.183 18.0485 47.2506L18.0552 47.2571C18.1186 47.3248 18.1954 47.3795 18.2788 47.4182C18.3556 47.4537 18.4424 47.473 18.5325 47.473H25.2555C25.349 47.473 25.4258 47.5471 25.4258 47.6374V48.4269C25.4258 48.5171 25.349 48.5913 25.2555 48.5913H20.1649C20.0748 48.5913 19.9913 48.6106 19.9112 48.646C19.8311 48.6815 19.7576 48.7331 19.6975 48.7975L19.6909 48.8072C19.6274 48.8781 19.574 48.9619 19.5373 49.0521C19.5039 49.1423 19.4839 49.239 19.4839 49.3454C19.4839 49.4485 19.5039 49.5484 19.5373 49.6386C19.574 49.7321 19.6241 49.8159 19.6909 49.8868C19.751 49.9544 19.8244 50.006 19.9045 50.0447L19.9112 50.0479C19.988 50.0834 20.0748 50.1027 20.1649 50.1027C21.3199 50.1027 22.6985 50.1091 24.0772 50.1124C25.2922 50.1188 26.5073 50.122 27.9761 50.122L29.3848 50.2123C29.4449 50.2155 29.5016 50.2509 29.5283 50.3089L29.6618 50.599C29.6752 50.6215 29.6819 50.6473 29.6819 50.6763C29.6819 50.7279 29.6752 50.7794 29.6618 50.8278C29.6485 50.8729 29.6284 50.918 29.6017 50.9631C29.5483 51.063 29.4615 51.1855 29.3614 51.3176C29.2646 51.4401 29.1478 51.5819 29.0209 51.7269C28.7739 52.0105 28.5102 52.2973 28.4 52.4166L28.39 52.4294C28.1931 52.6421 28.0662 52.8516 28.0028 53.045C27.9327 53.2544 27.9293 53.4446 27.9761 53.6057C27.9928 53.6637 28.0161 53.7185 28.0462 53.7668C28.0762 53.8184 28.1129 53.8635 28.1563 53.9054C28.1964 53.9473 28.2431 53.9795 28.2965 54.0085C28.3466 54.0375 28.4034 54.0601 28.4601 54.073C28.637 54.1181 28.8507 54.0988 29.0743 53.9957C29.2813 53.899 29.5016 53.7282 29.7152 53.4704L29.7253 53.4543L29.752 53.4252L29.7753 53.3995C29.8888 53.2802 30.0257 53.1384 30.1926 52.9644C31.0271 52.1007 32.5894 50.483 33.4706 49.239C33.4806 49.2261 33.4907 49.2132 33.504 49.2003C33.6008 49.1166 33.7043 49.036 33.8144 48.9683C33.9246 48.9006 34.0381 48.8426 34.1616 48.8007C34.2651 48.7653 34.3686 48.7363 34.4821 48.7202C34.5889 48.7041 34.699 48.6976 34.8125 48.7008H37.8836V45.2139V45.2107C37.8836 45.1849 37.887 45.1591 37.8903 45.1334C37.8936 45.1205 37.897 45.1043 37.897 45.0915C37.8936 45.0496 37.887 45.0044 37.887 44.9561C37.8769 44.8852 37.8769 44.8304 37.8769 44.7789ZM32.9265 27.6214V30.1706H36.3781C37.1926 30.1706 37.206 30.1963 37.3629 30.4477C37.4263 30.5508 37.5231 30.7087 37.8402 30.9633C38.134 31.1986 38.4611 31.3823 38.8149 31.508C39.1554 31.6304 39.5226 31.6949 39.8998 31.6949H42.8274C42.8507 31.6949 42.8741 31.6949 42.9008 31.6917H48.8427C48.9328 31.6917 49.0162 31.6723 49.0964 31.6369C49.1798 31.5982 49.2533 31.5434 49.32 31.4757C49.3834 31.4048 49.4368 31.321 49.4736 31.2308C49.5069 31.1406 49.527 31.0439 49.527 30.9375C49.527 30.8344 49.5069 30.7345 49.4736 30.6443C49.4368 30.5508 49.3834 30.467 49.32 30.3961C49.2566 30.3285 49.1831 30.2737 49.0997 30.235C49.0229 30.1996 48.9361 30.1802 48.846 30.1802H45.568H45.5513C45.4578 30.1802 45.381 30.1061 45.381 30.0159V29.2521C45.381 29.1619 45.4578 29.0877 45.5513 29.0877H50.5751C50.6653 29.0877 50.7487 29.0684 50.8288 29.033C50.909 28.9975 50.9824 28.9459 51.0425 28.8815L51.0492 28.8718C51.1126 28.8009 51.166 28.7171 51.2027 28.6269C51.2361 28.5367 51.2561 28.44 51.2561 28.3336C51.2561 28.2305 51.2361 28.1306 51.2027 28.0404C51.166 27.9469 51.1126 27.8631 51.0492 27.7922C50.9857 27.7246 50.9123 27.6698 50.8255 27.6311C50.7487 27.5957 50.6619 27.5763 50.5718 27.5763H45.5479C45.4545 27.5763 45.3777 27.5022 45.3777 27.412V26.6031C45.3777 26.5128 45.4545 26.4387 45.5479 26.4387H52.1908C52.2809 26.4387 52.3644 26.4194 52.4445 26.3839C52.5279 26.3453 52.6047 26.2905 52.6681 26.2228C52.7316 26.1519 52.785 26.0681 52.8217 25.9779C52.8551 25.8876 52.8751 25.791 52.8751 25.6846C52.8751 25.5815 52.8551 25.4816 52.8217 25.3914C52.7883 25.3011 52.7382 25.2206 52.6748 25.1529L52.6681 25.1464C52.6047 25.0788 52.5279 25.024 52.4478 24.9853C52.3711 24.9499 52.2843 24.9305 52.1941 24.9305H45.5513C45.4578 24.9305 45.381 24.8564 45.381 24.7662V23.9766C45.381 23.8864 45.4578 23.8123 45.5513 23.8123H50.5585C50.6486 23.8123 50.732 23.7929 50.8121 23.7575C50.8956 23.7188 50.9724 23.664 51.0358 23.5963C51.0992 23.5254 51.1526 23.4417 51.1894 23.3514C51.2227 23.2612 51.2428 23.1645 51.2428 23.0582C51.2428 22.955 51.2227 22.8551 51.1894 22.7649C51.1526 22.6714 51.1026 22.5876 51.0358 22.5167C50.9724 22.4491 50.8956 22.3943 50.8121 22.3556C50.7354 22.3202 50.6486 22.3008 50.5585 22.3008C49.4035 22.3008 48.0448 22.2944 46.6896 22.2912C45.4945 22.2879 44.2995 22.2815 42.834 22.2815L41.4187 22.2009C41.3586 22.1977 41.3018 22.1623 41.2751 22.1042L41.1416 21.8142C41.1283 21.7917 41.1216 21.7659 41.1216 21.7369C41.1216 21.6853 41.1283 21.6337 41.1416 21.5854C41.155 21.5403 41.175 21.4952 41.2017 21.45C41.2551 21.3501 41.3419 21.2277 41.4421 21.0956C41.5389 20.9731 41.6557 20.8313 41.7825 20.6863C42.0262 20.4059 42.2899 20.1223 42.4034 19.9999L42.4168 19.9837C42.6137 19.771 42.7406 19.5616 42.804 19.3682C42.8741 19.1587 42.8774 18.9686 42.8307 18.8075C42.814 18.7495 42.7906 18.6947 42.7606 18.6463C42.7306 18.5948 42.6938 18.5497 42.6504 18.5078C42.6104 18.4659 42.5637 18.4336 42.5102 18.4046C42.4602 18.3724 42.4034 18.3499 42.3467 18.3337C42.1698 18.2886 41.9561 18.308 41.7325 18.4111C41.5255 18.5078 41.3052 18.6786 41.0915 18.9364L41.0815 18.9525L41.0548 18.9815L41.0248 19.0105C40.9113 19.1297 40.7744 19.2715 40.6075 19.4456C39.773 20.3092 38.2108 21.927 37.3295 23.1709C37.3195 23.1838 37.3095 23.1967 37.2961 23.2096C37.1993 23.2934 37.0958 23.3708 36.9857 23.4417C36.8755 23.5093 36.762 23.5673 36.6385 23.6092C36.535 23.6447 36.4315 23.6737 36.318 23.6898C36.2112 23.7059 36.1011 23.7124 35.9876 23.7091H32.9165V27.196V27.1993C32.9165 27.225 32.9132 27.2508 32.9098 27.2766C32.9065 27.2895 32.9031 27.3056 32.9031 27.3185C32.9065 27.3604 32.9132 27.4055 32.9132 27.4539C32.9232 27.5151 32.9265 27.5699 32.9265 27.6214ZM42.824 32.7874H40.5842V38.1144C40.5842 38.9458 40.5574 38.962 40.3004 39.1199C40.1936 39.1843 40.0267 39.2875 39.7663 39.6162C39.5226 39.9191 39.3324 40.2607 39.1988 40.6281C39.072 40.9826 39.0052 41.3628 39.0052 41.756V44.7821C39.0052 44.8079 39.0052 44.8304 39.0086 44.8562V50.7666C39.0086 50.86 39.0286 50.947 39.062 51.0276L39.0653 51.034C39.1054 51.121 39.1621 51.2016 39.2356 51.2693C39.309 51.337 39.3958 51.3918 39.4893 51.4272C39.5794 51.4626 39.6829 51.482 39.7897 51.482C39.8965 51.482 39.9966 51.4626 40.0901 51.4272C40.1869 51.3918 40.2737 51.337 40.3438 51.2693C40.4172 51.2016 40.474 51.1243 40.5141 51.0373C40.5508 50.9535 40.5708 50.8632 40.5708 50.7666V47.6083V47.5922C40.5708 47.502 40.6476 47.4279 40.741 47.4279H41.5322C41.6256 47.4279 41.7024 47.502 41.7024 47.5922V52.5487C41.7024 52.6454 41.7225 52.7356 41.7592 52.8194C41.7959 52.9032 41.8526 52.9805 41.9194 53.045L41.9294 53.0514C41.9995 53.1159 42.083 53.1707 42.1764 53.2061L42.1831 53.2093C42.2732 53.2448 42.3767 53.2641 42.4835 53.2641C42.5904 53.2641 42.6905 53.2448 42.784 53.2093C42.8808 53.1739 42.9642 53.1191 43.0377 53.0514C43.1111 52.9837 43.1679 52.9064 43.2079 52.8194C43.2446 52.7356 43.2647 52.6454 43.2647 52.5487V47.5922C43.2647 47.502 43.3414 47.4279 43.4349 47.4279H44.2728C44.3662 47.4279 44.443 47.502 44.443 47.5922V54.2245C44.443 54.3211 44.463 54.4114 44.4998 54.4952C44.5398 54.5822 44.5966 54.6627 44.67 54.7272C44.7435 54.7949 44.8302 54.8497 44.9237 54.8851C45.0138 54.9206 45.1173 54.9399 45.2241 54.9399C45.3276 54.9399 45.4278 54.9206 45.5146 54.8883L45.5212 54.8851C45.618 54.8497 45.7048 54.7949 45.7749 54.7272C45.8484 54.6595 45.9051 54.5822 45.9452 54.4952C45.9819 54.4114 46.0019 54.3211 46.0019 54.2245V47.5922C46.0019 47.502 46.0787 47.4279 46.1722 47.4279H46.99C47.0835 47.4279 47.1602 47.502 47.1602 47.5922V52.5326C47.1602 52.6292 47.1803 52.7195 47.217 52.8033C47.2571 52.8903 47.3138 52.9709 47.3872 53.0385C47.4607 53.1062 47.5441 53.161 47.6409 53.1964C47.7311 53.2319 47.8345 53.2512 47.9414 53.2512C48.0482 53.2512 48.1483 53.2319 48.2418 53.1964C48.3386 53.161 48.4221 53.1062 48.4955 53.0385C48.5689 52.9709 48.6257 52.8935 48.6657 52.8033C48.7025 52.7195 48.7225 52.6292 48.7225 52.5326C48.7225 51.3337 48.7292 49.9899 48.7325 48.6493C48.7392 47.4666 48.7425 46.2871 48.7425 44.7789L48.836 43.3222C48.8393 43.2642 48.876 43.2094 48.9328 43.1836L49.2332 43.0483C49.2599 43.0354 49.2866 43.0257 49.32 43.0257C49.3734 43.0257 49.4268 43.0322 49.4802 43.0483C49.5337 43.0644 49.5837 43.0837 49.6271 43.1127C49.7273 43.1675 49.8541 43.2545 49.9876 43.3577C50.1278 43.4672 50.2714 43.5865 50.4116 43.7057C50.7087 43.9635 51.0191 44.2503 51.1359 44.3599C51.3563 44.5629 51.5732 44.6918 51.7735 44.7627C51.9872 44.8369 52.1841 44.8401 52.3477 44.7917C52.4044 44.7756 52.4612 44.7499 52.5146 44.7176C52.568 44.6854 52.6147 44.6467 52.6581 44.6048C52.7015 44.5629 52.7382 44.5114 52.7683 44.4598C52.7983 44.405 52.8217 44.347 52.8384 44.2858C52.8885 44.0957 52.8684 43.8733 52.7549 43.6348C52.6515 43.4157 52.4745 43.1901 52.2041 42.9645L52.1908 42.9548L52.1608 42.9291L52.1407 42.9097C52.0306 42.8066 51.877 42.6583 51.6867 42.4747C50.7921 41.611 49.1164 39.9964 47.8279 39.0844C47.8145 39.0748 47.8012 39.0651 47.7878 39.0522C47.701 38.9523 47.6209 38.8459 47.5508 38.7332C47.4807 38.6204 47.424 38.5011 47.3772 38.3787C47.3405 38.2723 47.3105 38.166 47.2938 38.0532C47.2771 37.9468 47.2704 37.834 47.2737 37.7148V32.7809H43.2313H43.2279C43.2012 32.7809 43.1745 32.7777 43.1478 32.7745C43.1345 32.7712 43.1211 32.7712 43.1111 32.768C43.0711 32.7712 43.031 32.7745 42.9876 32.7777H42.9843C42.9309 32.7841 42.8774 32.7874 42.824 32.7874Z" fill="#181818"/>
</g>
<defs>
<clipPath id="clip0_19_425">
<rect width="37.2" height="39.6" fill="white" transform="translate(16.8 16.4001)"/>
</clipPath>
</defs>
</svg>
