<svg width="54" height="55" viewBox="0 0 54 55" fill="none" xmlns="http://www.w3.org/2000/svg">
<rect x="1.2" y="1.89995" width="51.6" height="51.6" rx="9.6" stroke="#EE1313" stroke-opacity="0.5" stroke-width="2.4"/>
<path fill-rule="evenodd" clip-rule="evenodd" d="M30.9884 15.1039C31.9256 14.1666 33.4452 14.1666 34.3825 15.1039L38.5763 19.2977C39.5136 20.235 39.5136 21.7546 38.5763 22.6918L36.9703 24.2978C36.3544 24.9137 35.4199 25.0168 34.6973 24.6072L33.8594 25.4451C33.8574 25.4503 33.8511 25.469 33.8497 25.5049C33.8465 25.585 33.8698 25.7043 33.9354 25.8243C34.7923 27.3894 34.6634 29.1103 34.0546 30.6746C33.45 32.2282 32.3394 33.7331 31.0271 35.0454C30.5584 35.514 29.7986 35.514 29.33 35.0454L24.8309 30.5463L17.5979 37.7793C17.1293 38.248 16.3695 38.248 15.9009 37.7793C15.4322 37.3107 15.4322 36.5509 15.9009 36.0823L23.1339 28.8493L18.53 24.2454C18.0614 23.7768 18.0614 23.017 18.53 22.5484C19.8494 21.2291 21.3672 20.1096 22.9461 19.5157C24.5438 18.9148 26.2916 18.8278 27.886 19.7467C27.9955 19.8099 28.1062 19.8323 28.1803 19.8296C28.2129 19.8285 28.23 19.8229 28.2349 19.821L29.073 18.9829C28.6634 18.2603 28.7665 17.3258 29.3824 16.7099L30.9884 15.1039ZM30.1454 32.4667C30.9059 31.5734 31.4834 30.664 31.818 29.8043C32.2594 28.67 32.2436 27.7317 31.8303 26.9768C31.3612 26.1201 31.1795 24.7309 32.16 23.7504L33.3096 22.6008C33.9255 21.9849 34.86 21.8818 35.5826 22.2914L36.8793 20.9948L32.6854 16.8009L31.3888 18.0976C31.7984 18.8202 31.6953 19.7547 31.0794 20.3706L29.9298 21.5202C28.9503 22.4997 27.5556 22.3264 26.6875 21.8261C25.885 21.3636 24.925 21.3356 23.791 21.7621C22.9238 22.0883 22.0086 22.665 21.1089 23.4302L30.1454 32.4667Z" fill="#EE1313" fill-opacity="0.5"/>
</svg>
