<svg width="54" height="55" viewBox="0 0 54 55" fill="none" xmlns="http://www.w3.org/2000/svg">
<rect x="1.2" y="1.89995" width="51.6" height="51.6" rx="9.6" stroke="#EE1313" stroke-opacity="0.5" stroke-width="2.4"/>
<path fill-rule="evenodd" clip-rule="evenodd" d="M27.6002 15.7C26.5216 15.7 25.5231 16.0571 24.721 16.6591C24.5164 16.8126 24.2549 16.8998 24 16.8998C21.3491 16.8998 19.2 19.0489 19.2 21.6999C19.2 21.9546 19.1129 22.216 18.9594 22.4205C18.3572 23.2227 18 24.2214 18 25.3C18 26.3788 18.3573 27.3775 18.9595 28.1797C19.1129 28.3841 19.2 28.6454 19.2 28.9C19.2 31.1399 20.7342 33.0215 22.8091 33.5512C22.8031 33.5999 22.8 33.6496 22.8 33.6999V38.5C22.8 38.9062 23.0055 39.2848 23.3461 39.5061C23.6867 39.7275 24.1162 39.7615 24.4874 39.5965L27.6 38.2131L30.7126 39.5965C31.0838 39.7615 31.5133 39.7275 31.8539 39.5061C32.1945 39.2848 32.4 38.9062 32.4 38.5V33.6999C32.4 33.6496 32.3969 33.5999 32.3909 33.5512C34.4658 33.0215 36 31.1399 36 28.9C36 28.6454 36.0871 28.3841 36.2405 28.1797C36.8427 27.3775 37.2 26.3788 37.2 25.3C37.2 24.2214 36.8428 23.2227 36.2406 22.4205C36.0871 22.216 36 21.9546 36 21.6999C36 19.0489 33.8509 16.8998 31.2 16.8998C30.9453 16.8998 30.684 16.8127 30.4796 16.6593C29.6775 16.0572 28.6788 15.7 27.6002 15.7ZM30 34.2576C29.2936 34.666 28.4731 34.9 27.6002 34.9C26.7271 34.9 25.9065 34.6659 25.2 34.2574V36.6534L27.1126 35.8034C27.4229 35.6655 27.7771 35.6655 28.0874 35.8034L30 36.6534V34.2576ZM26.1616 18.5786C26.5625 18.2777 27.0588 18.1 27.6002 18.1C28.1416 18.1 28.6379 18.2778 29.0388 18.5787C29.6581 19.0435 30.4247 19.2998 31.2 19.2998C32.5254 19.2998 33.6 20.3744 33.6 21.6999C33.6 22.4752 33.8563 23.242 34.3212 23.8613C34.6222 24.2622 34.8 24.7586 34.8 25.3C34.8 25.8415 34.6221 26.3379 34.3212 26.7388C33.8563 27.3581 33.6 28.1248 33.6 28.9C33.6 30.2255 32.5254 31.3001 31.2 31.3001C30.4248 31.3001 29.6581 31.5564 29.0388 32.0212C28.6379 32.3221 28.1416 32.5 27.6002 32.5C27.0588 32.5 26.5625 32.3222 26.1616 32.0213C25.5422 31.5564 24.7754 31.3001 24 31.3001C22.6746 31.3001 21.6 30.2255 21.6 28.9C21.6 28.1248 21.3437 27.3581 20.8788 26.7388C20.5779 26.3379 20.4 25.8415 20.4 25.3C20.4 24.7586 20.5778 24.2622 20.8788 23.8613C21.3437 23.242 21.6 22.4752 21.6 21.6999C21.6 20.3744 22.6746 19.2998 24 19.2998C24.7754 19.2998 25.5422 19.0435 26.1616 18.5786Z" fill="#EE1313" fill-opacity="0.5"/>
</svg>
