<svg width="512" height="219" viewBox="0 0 512 219" fill="none" xmlns="http://www.w3.org/2000/svg">
<path opacity="0.5" d="M294.4 208.2C294.4 196.271 304.071 186.6 316 186.6H511.6V208.2H294.4Z" fill="#D91D1D"/>
<path d="M17.7905 82.6001L0.563965 21.4868H12.4585L23.4917 66.3989H24.0249L35.7964 21.4868H46.6655L58.355 66.4399H58.9702L69.9214 21.4868H81.8979L64.6304 82.6001H53.6792L41.4565 39.7798H40.9644L28.7827 82.6001H17.7905ZM95.1887 55.7759V82.6001H84.4015V21.4868H94.9426V44.5786H95.5168C96.5832 41.981 98.2375 39.9302 100.48 38.4263C102.722 36.9224 105.607 36.1704 109.134 36.1704C112.306 36.1704 115.068 36.8403 117.419 38.1802C119.798 39.52 121.644 41.4751 122.956 44.0454C124.269 46.6157 124.925 49.7466 124.925 53.438V82.6001H114.097V55.1196C114.097 52.0024 113.304 49.5962 111.718 47.9009C110.132 46.1782 107.917 45.3169 105.073 45.3169C103.159 45.3169 101.45 45.7271 99.9465 46.5474C98.4699 47.3677 97.3078 48.5571 96.4601 50.1157C95.6125 51.647 95.1887 53.5337 95.1887 55.7759ZM151.505 83.5024C146.911 83.5024 142.946 82.5454 139.61 80.6313C136.274 78.6899 133.704 75.9556 131.899 72.4282C130.122 68.9009 129.233 64.7446 129.233 59.9595C129.233 55.229 130.122 51.0864 131.899 47.5317C133.677 43.9497 136.179 41.1606 139.405 39.1646C142.632 37.1685 146.432 36.1704 150.807 36.1704C153.624 36.1704 156.29 36.6216 158.806 37.5239C161.348 38.4263 163.591 39.8208 165.532 41.7075C167.501 43.5942 169.046 46.0005 170.167 48.9263C171.288 51.8247 171.848 55.2837 171.848 59.3032V62.6665H134.278V55.4067H166.475L161.431 57.5396C161.431 54.9419 161.034 52.686 160.241 50.772C159.448 48.8306 158.272 47.313 156.714 46.2192C155.155 45.1255 153.214 44.5786 150.89 44.5786C148.565 44.5786 146.583 45.1255 144.942 46.2192C143.302 47.313 142.057 48.7896 141.21 50.6489C140.362 52.481 139.938 54.5317 139.938 56.8013V61.8462C139.938 64.6353 140.417 67.0278 141.374 69.0239C142.358 70.9927 143.725 72.4966 145.475 73.5356C147.253 74.5747 149.317 75.0942 151.669 75.0942C153.2 75.0942 154.595 74.8755 155.852 74.438C157.138 74.0005 158.231 73.3442 159.134 72.4692C160.063 71.5669 160.774 70.4595 161.266 69.147L171.356 70.3364C170.7 72.9888 169.483 75.313 167.706 77.3091C165.956 79.2778 163.7 80.8091 160.938 81.9028C158.204 82.9692 155.059 83.5024 151.505 83.5024ZM176.034 82.6001V36.7446H186.493V44.4556H186.985C187.805 41.7759 189.241 39.7251 191.292 38.3032C193.342 36.854 195.68 36.1294 198.305 36.1294C198.879 36.1294 199.536 36.1567 200.274 36.2114C201.04 36.2661 201.669 36.3345 202.161 36.4165V46.3423C201.696 46.1782 200.971 46.0415 199.987 45.9321C199.002 45.8228 198.059 45.7681 197.157 45.7681C195.161 45.7681 193.383 46.1919 191.825 47.0396C190.266 47.8872 189.036 49.0493 188.133 50.5259C187.258 52.0024 186.821 53.7251 186.821 55.6938V82.6001H176.034ZM222.957 83.5024C218.363 83.5024 214.399 82.5454 211.063 80.6313C207.727 78.6899 205.156 75.9556 203.352 72.4282C201.574 68.9009 200.686 64.7446 200.686 59.9595C200.686 55.229 201.574 51.0864 203.352 47.5317C205.129 43.9497 207.631 41.1606 210.858 39.1646C214.084 37.1685 217.885 36.1704 222.26 36.1704C225.076 36.1704 227.742 36.6216 230.258 37.5239C232.801 38.4263 235.043 39.8208 236.985 41.7075C238.953 43.5942 240.498 46.0005 241.619 48.9263C242.74 51.8247 243.301 55.2837 243.301 59.3032V62.6665H205.731V55.4067H237.928L232.883 57.5396C232.883 54.9419 232.487 52.686 231.694 50.772C230.901 48.8306 229.725 47.313 228.166 46.2192C226.608 45.1255 224.666 44.5786 222.342 44.5786C220.018 44.5786 218.035 45.1255 216.395 46.2192C214.754 47.313 213.51 48.7896 212.662 50.6489C211.815 52.481 211.391 54.5317 211.391 56.8013V61.8462C211.391 64.6353 211.869 67.0278 212.826 69.0239C213.811 70.9927 215.178 72.4966 216.928 73.5356C218.705 74.5747 220.77 75.0942 223.121 75.0942C224.653 75.0942 226.047 74.8755 227.305 74.438C228.59 74.0005 229.684 73.3442 230.586 72.4692C231.516 71.5669 232.227 70.4595 232.719 69.147L242.809 70.3364C242.153 72.9888 240.936 75.313 239.158 77.3091C237.408 79.2778 235.153 80.8091 232.391 81.9028C229.656 82.9692 226.512 83.5024 222.957 83.5024ZM290.759 83.4204C285.154 83.4204 280.218 82.1489 275.953 79.606C271.714 77.063 268.406 73.4536 266.027 68.7778C263.648 64.1021 262.459 58.5513 262.459 52.1255C262.459 45.563 263.675 39.9302 266.109 35.2271C268.57 30.5239 271.906 26.9282 276.117 24.4399C280.328 21.9243 285.099 20.6665 290.431 20.6665C293.822 20.6665 296.966 21.1587 299.865 22.1431C302.791 23.1274 305.388 24.5356 307.658 26.3677C309.927 28.1724 311.787 30.3188 313.236 32.8071C314.712 35.2954 315.697 38.0298 316.189 41.0103H304.91C304.418 39.397 303.734 37.9478 302.859 36.6626C302.011 35.3774 300.972 34.2837 299.742 33.3813C298.539 32.4517 297.171 31.7544 295.64 31.2896C294.109 30.8247 292.414 30.5923 290.554 30.5923C287.3 30.5923 284.388 31.4263 281.818 33.0942C279.248 34.7349 277.224 37.1548 275.748 40.354C274.298 43.5259 273.574 47.4087 273.574 52.0024C273.574 56.6235 274.298 60.5337 275.748 63.7329C277.197 66.9321 279.22 69.3657 281.818 71.0337C284.416 72.6743 287.423 73.4946 290.841 73.4946C293.931 73.4946 296.611 72.9067 298.88 71.731C301.15 70.5278 302.9 68.8325 304.13 66.645C305.361 64.4575 305.976 61.8735 305.976 58.8931L308.519 59.3032H291.908V50.6489H316.722V57.9497C316.722 63.1997 315.615 67.7251 313.4 71.5259C311.185 75.3267 308.109 78.2661 304.171 80.3442C300.261 82.395 295.791 83.4204 290.759 83.4204ZM322.138 82.6001V36.7446H332.597V44.4556H333.089C333.909 41.7759 335.345 39.7251 337.396 38.3032C339.447 36.854 341.784 36.1294 344.409 36.1294C344.984 36.1294 345.64 36.1567 346.378 36.2114C347.144 36.2661 347.773 36.3345 348.265 36.4165V46.3423C347.8 46.1782 347.075 46.0415 346.091 45.9321C345.107 45.8228 344.163 45.7681 343.261 45.7681C341.265 45.7681 339.488 46.1919 337.929 47.0396C336.37 47.8872 335.14 49.0493 334.238 50.5259C333.363 52.0024 332.925 53.7251 332.925 55.6938V82.6001H322.138ZM369.061 83.5024C364.468 83.5024 360.503 82.5454 357.167 80.6313C353.831 78.6899 351.261 75.9556 349.456 72.4282C347.679 68.9009 346.79 64.7446 346.79 59.9595C346.79 55.229 347.679 51.0864 349.456 47.5317C351.233 43.9497 353.735 41.1606 356.962 39.1646C360.188 37.1685 363.989 36.1704 368.364 36.1704C371.181 36.1704 373.847 36.6216 376.362 37.5239C378.905 38.4263 381.147 39.8208 383.089 41.7075C385.058 43.5942 386.602 46.0005 387.724 48.9263C388.845 51.8247 389.405 55.2837 389.405 59.3032V62.6665H351.835V55.4067H384.032L378.987 57.5396C378.987 54.9419 378.591 52.686 377.798 50.772C377.005 48.8306 375.829 47.313 374.27 46.2192C372.712 45.1255 370.77 44.5786 368.446 44.5786C366.122 44.5786 364.14 45.1255 362.499 46.2192C360.858 47.313 359.614 48.7896 358.767 50.6489C357.919 52.481 357.495 54.5317 357.495 56.8013V61.8462C357.495 64.6353 357.974 67.0278 358.931 69.0239C359.915 70.9927 361.282 72.4966 363.032 73.5356C364.81 74.5747 366.874 75.0942 369.226 75.0942C370.757 75.0942 372.151 74.8755 373.409 74.438C374.694 74.0005 375.788 73.3442 376.69 72.4692C377.62 71.5669 378.331 70.4595 378.823 69.147L388.913 70.3364C388.257 72.9888 387.04 75.313 385.263 77.3091C383.513 79.2778 381.257 80.8091 378.495 81.9028C375.761 82.9692 372.616 83.5024 369.061 83.5024ZM406.797 83.5435C403.872 83.5435 401.247 83.0239 398.922 81.9849C396.598 80.9185 394.766 79.3599 393.426 77.3091C392.087 75.2583 391.417 72.729 391.417 69.7212C391.417 67.1509 391.895 65.0181 392.852 63.3228C393.809 61.6274 395.108 60.2739 396.749 59.2622C398.417 58.2505 400.29 57.4849 402.368 56.9653C404.446 56.4185 406.592 56.0356 408.807 55.8169C411.514 55.5161 413.702 55.2563 415.37 55.0376C417.038 54.8188 418.241 54.4634 418.979 53.9712C419.745 53.479 420.128 52.7134 420.128 51.6743V51.4692C420.128 49.2544 419.471 47.5317 418.159 46.3013C416.846 45.0708 414.932 44.4556 412.417 44.4556C409.764 44.4556 407.659 45.0298 406.1 46.1782C404.569 47.3267 403.53 48.6802 402.983 50.2388L392.934 48.8032C393.727 46.0142 395.04 43.6899 396.872 41.8306C398.704 39.9438 400.932 38.5356 403.557 37.606C406.21 36.6489 409.135 36.1704 412.335 36.1704C414.522 36.1704 416.71 36.4302 418.897 36.9497C421.085 37.4419 423.094 38.2896 424.926 39.4927C426.758 40.6958 428.221 42.3091 429.315 44.3325C430.409 46.356 430.956 48.8853 430.956 51.9204V82.6001H420.579V76.2837H420.251C419.594 77.5415 418.665 78.731 417.462 79.8521C416.286 80.9458 414.809 81.8345 413.032 82.5181C411.282 83.2017 409.204 83.5435 406.797 83.5435ZM409.546 75.5864C411.733 75.5864 413.62 75.1626 415.206 74.3149C416.792 73.4399 418.022 72.2915 418.897 70.8696C419.772 69.4204 420.21 67.8481 420.21 66.1528V60.7798C419.854 61.0532 419.28 61.313 418.487 61.5591C417.694 61.7778 416.792 61.9829 415.78 62.1743C414.768 62.3657 413.77 62.5298 412.786 62.6665C411.829 62.8032 410.995 62.9126 410.284 62.9946C408.671 63.2134 407.221 63.5825 405.936 64.1021C404.678 64.5942 403.68 65.2778 402.942 66.1528C402.204 67.0278 401.835 68.1626 401.835 69.5571C401.835 71.5532 402.559 73.0571 404.008 74.0688C405.458 75.0806 407.303 75.5864 409.546 75.5864ZM460.119 36.7446V45.1118H433.828V36.7446H460.119ZM440.268 25.8345H451.055V68.8188C451.055 70.6235 451.451 71.9634 452.244 72.8384C453.037 73.686 454.295 74.1099 456.018 74.1099C456.483 74.1099 457.002 74.0688 457.576 73.9868C458.151 73.9048 458.67 73.8091 459.135 73.6997L460.981 82.1489C459.832 82.5044 458.67 82.7642 457.494 82.9282C456.319 83.1196 455.143 83.2153 453.967 83.2153C449.701 83.2153 446.352 82.0942 443.918 79.8521C441.485 77.5825 440.268 74.4927 440.268 70.5825V25.8345ZM4.82959 194.6V133.487H15.9038V185.331H42.8511V194.6H4.82959ZM67.3801 195.502C62.7863 195.502 58.8215 194.545 55.4855 192.631C52.1496 190.69 49.5793 187.956 47.7746 184.428C45.9972 180.901 45.1086 176.745 45.1086 171.959C45.1086 167.229 45.9972 163.086 47.7746 159.532C49.5519 155.95 52.0539 153.161 55.2804 151.165C58.507 149.168 62.3078 148.17 66.6828 148.17C69.4992 148.17 72.1652 148.622 74.6808 149.524C77.2238 150.426 79.466 151.821 81.4074 153.708C83.3762 155.594 84.9211 158 86.0422 160.926C87.1633 163.825 87.7238 167.284 87.7238 171.303V174.667H50.1535V167.407H82.3508L77.3058 169.54C77.3058 166.942 76.9094 164.686 76.1164 162.772C75.3234 160.831 74.1476 159.313 72.589 158.219C71.0304 157.125 69.089 156.579 66.7648 156.579C64.4406 156.579 62.4582 157.125 60.8176 158.219C59.1769 159.313 57.9328 160.79 57.0851 162.649C56.2375 164.481 55.8137 166.532 55.8137 168.801V173.846C55.8137 176.635 56.2922 179.028 57.2492 181.024C58.2336 182.993 59.6008 184.497 61.3508 185.536C63.1281 186.575 65.1926 187.094 67.5441 187.094C69.0754 187.094 70.4699 186.875 71.7277 186.438C73.0129 186 74.1066 185.344 75.009 184.469C75.9387 183.567 76.6496 182.459 77.1418 181.147L87.2316 182.336C86.5754 184.989 85.3586 187.313 83.5812 189.309C81.8312 191.278 79.5754 192.809 76.8137 193.903C74.0793 194.969 70.9347 195.502 67.3801 195.502ZM105.116 195.543C102.19 195.543 99.5653 195.024 97.2411 193.985C94.9169 192.918 93.0848 191.36 91.745 189.309C90.4051 187.258 89.7352 184.729 89.7352 181.721C89.7352 179.151 90.2137 177.018 91.1708 175.323C92.1278 173.627 93.4266 172.274 95.0672 171.262C96.7352 170.25 98.6083 169.485 100.686 168.965C102.765 168.418 104.911 168.036 107.126 167.817C109.833 167.516 112.02 167.256 113.688 167.038C115.356 166.819 116.559 166.463 117.298 165.971C118.063 165.479 118.446 164.713 118.446 163.674V163.469C118.446 161.254 117.79 159.532 116.477 158.301C115.165 157.071 113.251 156.456 110.735 156.456C108.083 156.456 105.977 157.03 104.419 158.178C102.888 159.327 101.848 160.68 101.302 162.239L91.2528 160.803C92.0458 158.014 93.3583 155.69 95.1903 153.831C97.0223 151.944 99.2508 150.536 101.876 149.606C104.528 148.649 107.454 148.17 110.653 148.17C112.841 148.17 115.028 148.43 117.216 148.95C119.403 149.442 121.413 150.29 123.245 151.493C125.077 152.696 126.54 154.309 127.634 156.333C128.727 158.356 129.274 160.885 129.274 163.92V194.6H118.897V188.284H118.569C117.913 189.542 116.983 190.731 115.78 191.852C114.604 192.946 113.128 193.834 111.35 194.518C109.6 195.202 107.522 195.543 105.116 195.543ZM107.864 187.586C110.052 187.586 111.938 187.163 113.524 186.315C115.11 185.44 116.341 184.292 117.216 182.87C118.091 181.42 118.528 179.848 118.528 178.153V172.78C118.173 173.053 117.598 173.313 116.806 173.559C116.013 173.778 115.11 173.983 114.098 174.174C113.087 174.366 112.089 174.53 111.104 174.667C110.147 174.803 109.313 174.913 108.602 174.995C106.989 175.213 105.54 175.583 104.255 176.102C102.997 176.594 101.999 177.278 101.261 178.153C100.522 179.028 100.153 180.163 100.153 181.557C100.153 183.553 100.878 185.057 102.327 186.069C103.776 187.081 105.622 187.586 107.864 187.586ZM152.491 195.42C148.909 195.42 145.682 194.504 142.811 192.672C139.967 190.813 137.725 188.12 136.085 184.592C134.444 181.065 133.624 176.786 133.624 171.754C133.624 166.641 134.458 162.334 136.126 158.834C137.821 155.334 140.09 152.682 142.934 150.877C145.778 149.073 148.963 148.17 152.491 148.17C155.198 148.17 157.413 148.622 159.135 149.524C160.858 150.426 162.225 151.52 163.237 152.805C164.276 154.063 165.069 155.239 165.616 156.333H166.067V133.487H176.813V194.6H166.272V187.34H165.616C165.042 188.461 164.235 189.651 163.196 190.909C162.157 192.139 160.776 193.206 159.053 194.108C157.331 194.983 155.143 195.42 152.491 195.42ZM155.485 186.561C157.782 186.561 159.723 185.946 161.309 184.715C162.922 183.458 164.153 181.721 165.001 179.506C165.848 177.264 166.272 174.667 166.272 171.713C166.272 168.733 165.848 166.149 165.001 163.961C164.18 161.747 162.963 160.038 161.35 158.834C159.764 157.631 157.809 157.03 155.485 157.03C153.106 157.03 151.11 157.659 149.497 158.917C147.883 160.174 146.667 161.911 145.846 164.125C145.053 166.34 144.657 168.87 144.657 171.713C144.657 174.557 145.067 177.1 145.887 179.342C146.708 181.584 147.911 183.348 149.497 184.633C151.11 185.918 153.106 186.561 155.485 186.561ZM203.434 195.502C198.84 195.502 194.875 194.545 191.539 192.631C188.203 190.69 185.633 187.956 183.828 184.428C182.051 180.901 181.162 176.745 181.162 171.959C181.162 167.229 182.051 163.086 183.828 159.532C185.606 155.95 188.108 153.161 191.334 151.165C194.561 149.168 198.362 148.17 202.737 148.17C205.553 148.17 208.219 148.622 210.735 149.524C213.278 150.426 215.52 151.821 217.461 153.708C219.43 155.594 220.975 158 222.096 160.926C223.217 163.825 223.778 167.284 223.778 171.303V174.667H186.207V167.407H218.405L213.36 169.54C213.36 166.942 212.963 164.686 212.17 162.772C211.377 160.831 210.201 159.313 208.643 158.219C207.084 157.125 205.143 156.579 202.819 156.579C200.494 156.579 198.512 157.125 196.871 158.219C195.231 159.313 193.987 160.79 193.139 162.649C192.291 164.481 191.867 166.532 191.867 168.801V173.846C191.867 176.635 192.346 179.028 193.303 181.024C194.287 182.993 195.655 184.497 197.405 185.536C199.182 186.575 201.246 187.094 203.598 187.094C205.129 187.094 206.524 186.875 207.781 186.438C209.067 186 210.16 185.344 211.063 184.469C211.992 183.567 212.703 182.459 213.196 181.147L223.285 182.336C222.629 184.989 221.412 187.313 219.635 189.309C217.885 191.278 215.629 192.809 212.867 193.903C210.133 194.969 206.988 195.502 203.434 195.502ZM227.963 194.6V148.745H238.422V156.456H238.914C239.734 153.776 241.17 151.725 243.221 150.303C245.271 148.854 247.609 148.129 250.234 148.129C250.809 148.129 251.465 148.157 252.203 148.211C252.969 148.266 253.598 148.334 254.09 148.417V158.342C253.625 158.178 252.9 158.042 251.916 157.932C250.932 157.823 249.988 157.768 249.086 157.768C247.09 157.768 245.312 158.192 243.754 159.04C242.195 159.887 240.965 161.049 240.062 162.526C239.187 164.002 238.75 165.725 238.75 167.694V194.6H227.963ZM292.646 160.926L282.843 161.952C282.433 160.448 281.545 159.122 280.177 157.973C278.81 156.797 276.882 156.209 274.394 156.209C272.152 156.209 270.265 156.702 268.734 157.686C267.23 158.67 266.478 159.928 266.478 161.459C266.478 162.799 266.97 163.907 267.955 164.782C268.966 165.629 270.634 166.313 272.959 166.833L280.793 168.473C285.086 169.375 288.298 170.852 290.431 172.903C292.564 174.954 293.63 177.606 293.63 180.86C293.63 183.731 292.796 186.274 291.128 188.489C289.461 190.704 287.15 192.426 284.197 193.657C281.271 194.887 277.894 195.502 274.066 195.502C268.461 195.502 263.949 194.327 260.531 191.975C257.14 189.596 255.103 186.301 254.42 182.09L264.961 181.106C265.425 183.157 266.437 184.715 267.996 185.782C269.582 186.821 271.605 187.34 274.066 187.34C276.636 187.34 278.701 186.821 280.259 185.782C281.818 184.715 282.597 183.417 282.597 181.885C282.597 179.315 280.546 177.565 276.445 176.635L268.611 174.995C264.209 174.038 260.955 172.493 258.849 170.36C256.744 168.2 255.691 165.452 255.691 162.116C255.691 159.272 256.47 156.811 258.029 154.733C259.587 152.655 261.761 151.042 264.55 149.893C267.339 148.745 270.566 148.17 274.23 148.17C279.617 148.17 283.841 149.333 286.904 151.657C289.994 153.954 291.908 157.043 292.646 160.926ZM337.723 194.096C339.235 194.096 340.635 193.9 341.923 193.508C343.267 193.06 344.359 192.584 345.199 192.08C346.263 191.408 347.019 190.624 347.467 189.728C347.971 188.776 348.419 187.6 348.811 186.2L350.743 178.808C351.359 176.512 351.583 174.804 351.415 173.684C351.303 172.564 350.687 171.808 349.567 171.416C348.503 171.024 346.795 170.8 344.443 170.744L344.863 169.064C345.983 169.12 347.299 169.176 348.811 169.232C350.379 169.232 352.003 169.26 353.683 169.316C355.363 169.316 356.903 169.316 358.303 169.316C360.543 169.316 362.587 169.288 364.435 169.232C366.339 169.176 367.907 169.12 369.139 169.064L368.719 170.744C367.487 170.8 366.507 170.996 365.779 171.332C365.107 171.668 364.519 172.34 364.015 173.348C363.567 174.356 363.063 175.896 362.503 177.968L358.051 194.6H356.371C356.539 193.312 356.483 192.192 356.203 191.24C355.923 190.288 355.335 189.812 354.439 189.812C353.599 189.812 352.731 190.036 351.835 190.484C350.939 190.932 349.875 191.464 348.643 192.08C346.515 193.312 344.415 194.236 342.343 194.852C340.327 195.468 338.143 195.776 335.791 195.776C328.623 195.776 323.079 194.096 319.159 190.736C315.295 187.376 313.363 182.644 313.363 176.54C313.363 172.732 313.951 168.84 315.127 164.864C316.359 160.888 318.123 157.052 320.419 153.356C322.715 149.66 325.459 146.356 328.651 143.444C331.843 140.532 335.455 138.236 339.487 136.556C343.519 134.82 347.859 133.952 352.507 133.952C356.147 133.952 358.947 134.484 360.907 135.548C362.923 136.612 364.715 137.9 366.283 139.412C367.123 140.252 367.907 140.392 368.635 139.832C369.363 139.272 370.175 137.704 371.071 135.128H372.919C372.079 137.312 371.211 139.972 370.315 143.108C369.419 146.188 368.495 149.968 367.543 154.448H365.695C365.807 153.328 365.891 152.264 365.947 151.256C366.059 150.192 366.115 149.156 366.115 148.148C366.115 146.972 366.031 145.908 365.863 144.956C365.695 143.948 365.387 142.968 364.939 142.016C363.819 139.944 362.111 138.348 359.815 137.228C357.575 136.052 354.971 135.464 352.003 135.464C348.475 135.464 345.255 136.472 342.343 138.488C339.487 140.448 336.967 143.08 334.783 146.384C332.599 149.632 330.779 153.216 329.323 157.136C327.867 161 326.747 164.892 325.963 168.812C325.235 172.676 324.871 176.176 324.871 179.312C324.871 184.352 325.935 188.076 328.063 190.484C330.191 192.892 333.411 194.096 337.723 194.096ZM381.366 194.6H371.034L381.114 158.396C381.618 156.716 381.786 155.54 381.618 154.868C381.45 154.196 380.946 153.86 380.106 153.86C379.042 153.86 378.062 154.392 377.166 155.456C376.27 156.52 375.346 158.396 374.394 161.084L372.966 165.032H371.37L373.554 158.732C374.338 156.492 375.318 154.756 376.494 153.524C377.67 152.236 378.958 151.34 380.358 150.836C381.758 150.332 383.186 150.08 384.642 150.08C386.434 150.08 387.75 150.444 388.59 151.172C389.486 151.9 390.046 152.852 390.27 154.028C390.55 155.204 390.606 156.492 390.438 157.892C390.326 159.236 390.102 160.552 389.766 161.84L381.366 194.6ZM402.87 152.012C401.638 152.012 400.378 152.46 399.09 153.356C397.802 154.196 396.458 155.568 395.058 157.472C393.658 159.376 392.23 161.896 390.774 165.032C389.374 168.112 387.918 171.892 386.406 176.372C384.894 180.796 383.382 186.032 381.87 192.08L383.886 180.908C385.622 175.028 387.246 170.128 388.758 166.208C390.326 162.232 391.838 159.068 393.294 156.716C394.806 154.308 396.402 152.6 398.082 151.592C399.762 150.584 401.582 150.08 403.542 150.08C405.558 150.08 407.098 150.668 408.162 151.844C409.282 153.02 409.842 154.476 409.842 156.212C409.842 157.612 409.506 158.928 408.834 160.16C408.162 161.336 407.266 162.288 406.146 163.016C405.082 163.688 403.85 164.024 402.45 164.024C401.05 164.024 399.93 163.66 399.09 162.932C398.306 162.204 397.914 161.14 397.914 159.74C397.914 158.508 398.194 157.388 398.754 156.38C399.314 155.372 400.042 154.532 400.938 153.86C401.834 153.132 402.814 152.628 403.878 152.348C403.766 152.236 403.626 152.152 403.458 152.096C403.29 152.04 403.094 152.012 402.87 152.012ZM431.468 151.76C430.012 151.76 428.528 152.516 427.016 154.028C425.504 155.484 424.076 157.5 422.732 160.076C421.388 162.596 420.156 165.424 419.036 168.56C417.972 171.696 417.132 174.944 416.516 178.304C415.9 181.608 415.592 184.772 415.592 187.796C415.592 190.036 415.872 191.66 416.432 192.668C417.048 193.62 417.944 194.096 419.12 194.096C420.52 194.096 421.976 193.368 423.488 191.912C425 190.456 426.428 188.496 427.772 186.032C429.172 183.512 430.404 180.712 431.468 177.632C432.532 174.496 433.372 171.248 433.988 167.888C434.604 164.528 434.912 161.252 434.912 158.06C434.912 155.708 434.604 154.084 433.988 153.188C433.428 152.236 432.588 151.76 431.468 151.76ZM405.68 182.168C405.68 179.648 406.016 176.932 406.688 174.02C407.416 171.108 408.48 168.252 409.88 165.452C411.28 162.596 413.016 160.02 415.088 157.724C417.216 155.372 419.68 153.524 422.48 152.18C425.28 150.78 428.444 150.08 431.972 150.08C436.004 150.08 439.14 151.228 441.38 153.524C443.676 155.764 444.824 159.152 444.824 163.688C444.824 166.208 444.46 168.924 443.732 171.836C443.06 174.748 442.024 177.632 440.624 180.488C439.224 183.288 437.46 185.864 435.332 188.216C433.26 190.512 430.824 192.36 428.024 193.76C425.224 195.104 422.06 195.776 418.532 195.776C414.5 195.776 411.336 194.628 409.04 192.332C406.8 190.036 405.68 186.648 405.68 182.168ZM471.085 189.644C469.349 191.436 467.361 192.92 465.121 194.096C462.881 195.216 460.361 195.776 457.561 195.776C454.985 195.776 452.885 195.328 451.261 194.432C449.637 193.48 448.433 192.248 447.649 190.736C446.921 189.168 446.557 187.488 446.557 185.696C446.557 183.064 447.313 180.404 448.825 177.716C450.337 174.972 452.381 172.228 454.957 169.484C457.589 166.74 460.529 164.024 463.777 161.336C467.081 158.648 470.497 156.016 474.025 153.44H474.697C473.353 153.664 472.065 154.112 470.833 154.784C469.601 155.4 468.481 156.1 467.473 156.884C466.465 157.668 465.457 158.34 464.449 158.9C463.497 159.46 462.545 159.74 461.593 159.74C460.529 159.74 459.633 159.46 458.905 158.9C458.233 158.284 457.449 157.976 456.553 157.976C455.713 157.976 455.041 158.312 454.537 158.984C454.033 159.6 453.501 160.72 452.941 162.344L452.101 164.948H450.505L452.437 158.816C453.501 155.4 454.705 153.132 456.049 152.012C457.449 150.836 458.877 150.248 460.333 150.248C461.397 150.248 462.349 150.472 463.189 150.92C464.029 151.368 464.897 151.844 465.793 152.348C466.745 152.796 467.921 153.02 469.321 153.02C470.385 153.02 471.449 152.88 472.513 152.6C473.577 152.264 474.669 151.704 475.789 150.92L476.881 149.324L478.645 150.164C475.845 152.796 473.185 155.596 470.665 158.564C468.201 161.532 466.017 164.556 464.113 167.636C462.209 170.66 460.697 173.712 459.577 176.792C458.457 179.872 457.897 182.896 457.897 185.864C457.897 188.16 458.261 189.84 458.989 190.904C459.717 191.968 460.781 192.5 462.181 192.5C463.525 192.5 464.925 192.136 466.381 191.408C467.837 190.68 469.237 189.616 470.581 188.216L471.085 189.644ZM482.845 191.492C485.029 191.492 486.961 190.876 488.641 189.644C490.321 188.412 491.721 186.816 492.841 184.856C494.017 182.84 494.913 180.628 495.529 178.22C496.201 175.812 496.649 173.432 496.873 171.08C497.097 168.728 497.069 166.572 496.789 164.612C495.389 164.108 493.905 163.464 492.337 162.68C490.769 161.84 489.453 160.776 488.389 159.488C487.325 158.144 486.793 156.548 486.793 154.7C486.793 153.356 487.185 152.264 487.969 151.424C488.809 150.528 489.873 150.08 491.161 150.08C492.449 150.08 493.513 150.5 494.353 151.34C495.193 152.124 495.893 153.16 496.453 154.448C497.013 155.736 497.461 157.136 497.797 158.648C498.133 160.16 498.385 161.644 498.553 163.1C498.889 165.732 498.917 168.532 498.637 171.5C498.357 174.468 497.741 177.38 496.789 180.236C495.893 183.092 494.633 185.696 493.009 188.048C491.385 190.4 489.397 192.276 487.045 193.676C484.749 195.076 482.061 195.776 478.981 195.776C477.133 195.776 475.369 195.44 473.689 194.768C472.065 194.096 470.749 192.92 469.741 191.24C468.733 189.56 468.229 187.236 468.229 184.268C468.229 181.748 468.649 179.312 469.489 176.96C470.385 174.552 471.505 172.424 472.849 170.576C474.193 168.672 475.621 167.188 477.133 166.124C478.645 165.004 480.017 164.444 481.249 164.444C482.201 164.444 482.901 164.752 483.349 165.368C483.797 165.984 484.077 166.74 484.189 167.636C484.357 168.532 484.441 169.344 484.441 170.072C484.441 173.376 483.629 176.652 482.005 179.9C480.381 183.092 477.945 186.004 474.697 188.636L474.193 187.208C476.713 185.024 478.729 182.42 480.241 179.396C481.753 176.316 482.509 173.264 482.509 170.24C482.509 169.12 482.397 168.196 482.173 167.468C481.949 166.684 481.557 166.292 480.997 166.292C480.157 166.292 479.289 166.992 478.393 168.392C477.497 169.736 476.713 171.472 476.041 173.6C475.425 175.728 475.117 177.996 475.117 180.404C475.117 182.308 475.369 184.128 475.873 185.864C476.377 187.544 477.217 188.916 478.393 189.98C479.569 190.988 481.053 191.492 482.845 191.492Z" fill="#181818"/>
<path d="M428.8 120.6L428.904 121.846C429.523 129.281 435.739 135 443.2 135C436.275 135 430.366 140.006 429.227 146.837L428.8 149.4L428.696 148.155C428.077 140.719 421.861 135 414.4 135C422.353 135 428.8 128.553 428.8 120.6Z" fill="#D91D1D"/>
</svg>
