<svg width="1534" height="374" viewBox="0 0 1534 374" fill="none" xmlns="http://www.w3.org/2000/svg">
<g clip-path="url(#clip0_462_721)">
<path d="M1091.14 92.7875C1074.21 85.5138 1054.51 95.9048 1046.91 107.429C1039.3 118.954 1036.02 132.746 1033.85 146.443C1029.39 174.565 1028.69 203.155 1031.77 231.461C1032.67 239.797 1034.3 248.866 1040.67 254.321C1047.05 259.776 1055.55 259.942 1063.39 258.572C1070.48 257.344 1077.68 254.652 1082.29 249.125C1089.37 240.647 1088.45 228.32 1087.69 217.291C1085.08 179.256 1089.08 141.055 1099.5 104.383" fill="#263238"/>
<path d="M1054.23 108.185C1062 92.7402 1085.62 84.4037 1104.7 89.5756C1120.8 93.921 1138.02 110.452 1139.2 127.361C1140.88 152.016 1127.56 177.191 1135.45 200.571C1144.63 227.824 1178.45 241.025 1187.09 268.443C1188.87 274.114 1189.46 280.09 1188.82 285.999C1188.19 291.908 1186.33 297.621 1183.39 302.781C1180.34 308.047 1175.69 312.912 1169.67 313.904C1162.18 315.108 1155.26 310.078 1149.36 305.308C1133.37 292.461 1117.12 279.33 1105.97 262.091C1092.87 241.804 1087.81 217.22 1087.6 192.99C1087.39 168.76 1091.71 144.884 1096.01 121.127" fill="#263238"/>
<path d="M1121.61 138.106C1122.22 133.268 1121.85 128.356 1120.52 123.663C1119.2 118.97 1116.94 114.591 1113.89 110.787C1110.84 106.982 1107.05 103.83 1102.76 101.517C1098.47 99.2037 1093.75 97.777 1088.9 97.3216C1069.51 95.4796 1052.25 109.933 1049.34 129.203C1046.79 146.089 1044.62 163.163 1044.62 169.35C1044.85 188.031 1055.79 195.328 1060.21 197.477C1061.8 198.052 1063.44 198.463 1065.12 198.705C1065.13 198.727 1065.14 198.751 1065.14 198.776C1065.14 198.801 1065.13 198.825 1065.12 198.847L1060.96 220.29C1059.07 234.342 1066.94 246.858 1080.94 248.913C1094.94 250.967 1106.02 240.175 1108.17 226.123L1121.61 138.106Z" fill="#936754"/>
<path d="M1053.66 138.508C1053.55 139.267 1053.72 140.042 1054.16 140.672C1054.61 141.301 1055.27 141.736 1056.02 141.885C1056.4 141.965 1056.78 141.971 1057.15 141.902C1057.52 141.834 1057.88 141.692 1058.2 141.486C1058.52 141.28 1058.79 141.013 1059.01 140.7C1059.22 140.388 1059.37 140.036 1059.45 139.665C1059.56 138.907 1059.38 138.135 1058.94 137.507C1058.5 136.879 1057.84 136.443 1057.09 136.288C1056.72 136.202 1056.33 136.191 1055.96 136.257C1055.58 136.322 1055.22 136.463 1054.9 136.67C1054.58 136.878 1054.31 137.147 1054.1 137.463C1053.88 137.779 1053.74 138.134 1053.66 138.508Z" fill="#263238"/>
<path d="M1053.66 134.304C1053.97 134.729 1056.43 133.407 1059.59 133.879C1062.76 134.351 1064.83 136.241 1065.24 135.934C1065.64 135.627 1065.24 135.036 1064.27 134.163C1063.04 133.005 1061.48 132.262 1059.8 132.037C1058.18 131.809 1056.53 132.089 1055.08 132.84C1053.92 133.454 1053.5 134.092 1053.66 134.304Z" fill="#263238"/>
<path d="M1083.58 143.349C1083.47 144.108 1083.65 144.883 1084.09 145.513C1084.53 146.142 1085.19 146.577 1085.95 146.726C1086.32 146.813 1086.7 146.824 1087.07 146.76C1087.45 146.696 1087.8 146.557 1088.12 146.353C1088.44 146.148 1088.72 145.881 1088.93 145.568C1089.15 145.255 1089.3 144.902 1089.37 144.53C1089.5 143.77 1089.32 142.992 1088.88 142.361C1088.44 141.73 1087.77 141.297 1087.01 141.153C1086.64 141.066 1086.26 141.055 1085.88 141.119C1085.51 141.183 1085.15 141.322 1084.83 141.527C1084.51 141.731 1084.24 141.998 1084.02 142.311C1083.81 142.624 1083.66 142.977 1083.58 143.349Z" fill="#263238"/>
<path d="M1084.65 139.405C1084.95 139.854 1087.43 138.532 1090.58 139.004C1093.72 139.476 1095.84 141.366 1096.24 141.059C1096.64 140.752 1096.24 140.161 1095.25 139.264C1094.02 138.128 1092.47 137.395 1090.81 137.162C1089.19 136.929 1087.54 137.209 1086.09 137.965C1084.93 138.579 1084.51 139.216 1084.65 139.405Z" fill="#263238"/>
<path d="M1069.75 161.085C1068.16 160.325 1066.49 159.762 1064.76 159.408C1063.96 159.219 1063.23 158.936 1063.16 158.369C1063.22 157.511 1063.53 156.689 1064.05 156.007C1065.09 154.165 1066.18 152.229 1067.34 150.221C1070.31 145.334 1072.88 140.216 1075.04 134.918C1071.68 139.553 1068.7 144.449 1066.13 149.56C1065 151.591 1063.94 153.551 1062.94 155.417C1062.23 156.361 1061.89 157.542 1062 158.723C1062.08 159.024 1062.22 159.304 1062.42 159.541C1062.62 159.778 1062.87 159.967 1063.16 160.093C1063.58 160.289 1064.04 160.424 1064.5 160.494C1066.22 160.922 1067.98 161.121 1069.75 161.085Z" fill="#263238"/>
<path d="M1065.33 198.87C1065.33 198.87 1077.4 201.633 1094 194.69C1094 194.69 1086.91 210.135 1064.2 204.633L1065.33 198.87Z" fill="#7C5142"/>
<path d="M1069.98 168.996C1070.69 168.331 1071.56 167.856 1072.51 167.617C1073.46 167.377 1074.45 167.381 1075.39 167.627C1076.77 167.944 1077.96 168.793 1078.72 169.988C1079.06 170.577 1079.22 171.257 1079.16 171.938C1079.11 172.618 1078.85 173.264 1078.41 173.79C1077.82 174.284 1077.1 174.59 1076.33 174.67C1075.57 174.75 1074.79 174.6 1074.11 174.239C1072.71 173.484 1071.46 172.466 1070.43 171.24C1070.11 170.935 1069.85 170.575 1069.65 170.177C1069.57 169.983 1069.54 169.768 1069.57 169.559C1069.61 169.35 1069.7 169.155 1069.84 168.996" fill="#7C5142"/>
<path d="M1078.74 164.722C1078.22 164.722 1077.73 168.052 1074.42 170.059C1071.12 172.066 1067.55 171.169 1067.46 171.641C1067.36 172.114 1068.16 172.421 1069.7 172.704C1071.71 173.013 1073.76 172.613 1075.51 171.57C1077.18 170.561 1078.4 168.945 1078.91 167.06C1079.24 165.643 1078.98 164.745 1078.74 164.722Z" fill="#263238"/>
<path d="M1084.03 133.667C1084.22 134.564 1087.43 134.635 1091.12 135.627C1094.8 136.619 1097.64 137.988 1098.2 137.351C1098.49 137.02 1098.09 136.123 1097 135.131C1095.54 133.854 1093.8 132.947 1091.92 132.486C1090.06 131.978 1088.1 131.921 1086.21 132.321C1084.74 132.746 1083.96 133.242 1084.03 133.667Z" fill="#263238"/>
<path d="M1055.77 128.022C1056.21 128.825 1058.5 128.4 1061.13 128.754C1063.75 129.109 1065.85 129.935 1066.51 129.25C1067.17 128.565 1066.51 128.164 1065.66 127.337C1064.49 126.306 1063.03 125.67 1061.48 125.519C1059.94 125.313 1058.38 125.602 1057.02 126.346C1055.98 126.912 1055.58 127.621 1055.77 128.022Z" fill="#263238"/>
<path d="M1063.87 99.6834C1065.01 106.776 1068.11 113.409 1072.82 118.833C1077.53 124.258 1083.67 128.258 1090.53 130.384L1089.47 125.094C1095.66 137.208 1106.18 146.554 1118.94 151.284C1123.34 143.815 1125.01 135.048 1123.65 126.485C1122.3 117.922 1118.01 110.096 1111.52 104.349C1105.03 98.6011 1096.74 95.2894 1088.08 94.9812C1079.41 94.6729 1070.91 97.3872 1064.03 102.659" fill="#263238"/>
<path d="M1184.8 282.92C1186.22 281.164 1187.44 279.255 1188.44 277.228C1190.95 271.595 1191.6 265.31 1190.31 259.28C1189.47 255.113 1187.93 251.12 1185.75 247.472C1183.22 243.316 1180.23 239.464 1176.82 235.995C1169.74 228.485 1160.29 221.825 1151.86 213.371C1147.59 209.313 1144.1 204.511 1141.56 199.201C1139.31 194.201 1137.82 188.891 1137.15 183.449C1136.22 174.278 1136.22 165.037 1137.15 155.866C1137.74 148.049 1138.35 141.696 1138.75 137.374C1138.96 135.273 1139.11 133.62 1139.22 132.344C1139.26 131.756 1139.35 131.171 1139.48 130.597C1139.55 131.185 1139.55 131.779 1139.48 132.368C1139.48 133.643 1139.34 135.32 1139.22 137.398C1138.94 141.909 1138.52 148.214 1138 155.913C1137.25 165.036 1137.38 174.209 1138.37 183.308C1139.06 188.627 1140.54 193.816 1142.74 198.705C1145.24 203.902 1148.66 208.606 1152.83 212.591C1161.23 220.975 1170.59 227.635 1177.74 235.263C1181.19 238.829 1184.2 242.793 1186.72 247.071C1188.92 250.81 1190.46 254.9 1191.27 259.162C1192.49 265.358 1191.66 271.781 1188.91 277.465C1188.14 278.978 1187.2 280.397 1186.1 281.692C1185.7 282.133 1185.27 282.544 1184.8 282.92Z" fill="#263238"/>
<path d="M952.634 147.364L912.605 85.5136L900.419 65.1566C900.419 65.1566 896.806 44.7524 895.082 39.0137C891.492 27.2057 890.359 27.5127 889.131 28.174C885.636 29.9216 894.633 49.1922 890.288 46.1694C885.943 43.1465 882.022 21.3253 878.48 23.2855C873.757 25.8832 883.605 45.8624 884.313 47.6336C885.022 49.4048 882.495 50.4439 881.951 48.838C881.149 46.4764 872.245 22.2936 867.617 24.7969C865.066 26.1666 867.971 30.5356 867.971 30.5356C867.971 30.5356 877.984 52.5693 875.764 53.6792C873.544 54.7892 867.191 42.0366 865.373 37.5968C863.555 33.1569 860.65 32.2832 859.469 34.692C858.595 36.3451 863.862 50.0896 865.775 54.4586C867.687 58.8275 873.119 70.6592 865.775 66.9987C858.43 63.3382 851.251 63.3382 849.243 64.6371C848.836 64.9905 848.548 65.462 848.421 65.9863C848.293 66.5105 848.332 67.0614 848.532 67.5625C848.732 68.0635 849.083 68.4899 849.536 68.7825C849.99 69.075 850.523 69.2192 851.062 69.195C853.834 69.5535 856.544 70.2926 859.115 71.3912C861.219 72.1917 863.168 73.3502 864.877 74.8156C866.884 76.5159 868.49 78.051 869.836 79.3735L879.779 100.037L923.681 186.212L1015.62 262.35L1038.81 220.55L952.634 147.364Z" fill="#936754"/>
<path d="M1190.09 492.583C1190.66 494.401 1191.27 496.527 1191.86 499.077C1192.39 501.273 1192.52 503.542 1192.27 505.784C1192.07 508.574 1191.49 511.324 1190.54 513.955C1189.41 516.317 1191.7 518.679 1193.75 517.64C1195.81 516.6 1199.07 510.224 1199.21 501.935C1199.35 493.646 1207.4 503.919 1210.4 507.626C1213.4 511.334 1223.23 522.292 1225.09 522.268C1227.83 522.268 1228.28 519.293 1225.21 515.679C1222.14 512.066 1213.66 500.565 1215.76 499.148C1217.87 497.731 1232.74 516.671 1232.74 516.671C1232.74 516.671 1235.29 521.253 1237.7 519.623C1242.02 516.648 1224.6 497.637 1222.87 495.866C1221.69 494.638 1223.84 492.937 1225.04 494.33C1226.25 495.724 1239.57 513.625 1243.94 510.649C1247.34 508.288 1229.77 494.874 1229.04 489.631C1228.3 484.388 1241.34 501.226 1244.5 498.912C1245.66 498.038 1246.44 497.235 1237.56 488.663C1233.26 484.483 1216.78 471.919 1216.78 471.919L1181.85 357.098L1138.49 357.806L1190.09 492.583Z" fill="#936754"/>
<path d="M1055.95 220.479C1048.9 217.77 1041.99 214.688 1035.27 211.245L966.497 159.148L935.796 200.146C935.796 200.146 1014.27 270.994 1015.57 270.616C1016.87 270.238 1055.95 220.479 1055.95 220.479Z" fill="#FF4F4F"/>
<path d="M1061.15 220.314L1055.95 220.479C1048.62 220.727 1041.53 223.215 1035.65 227.61C1029.77 232.006 1025.37 238.096 1023.06 245.064C1017.81 260.839 1018.12 265.987 1014.48 277.772C1005.79 305.922 1021.4 340.094 1021.4 340.094L1016.02 389.688L1122.08 391.601L1127.42 331.9L1147.23 242.513C1147.23 242.513 1142.84 223.337 1125.98 221.778C1117.24 220.928 1061.15 220.314 1061.15 220.314Z" fill="#FF4F4F"/>
<path d="M1129.09 223.289C1129.09 223.289 1154.22 223.171 1161.87 252.148C1169.52 281.125 1184.8 357.334 1184.8 357.334L1137.19 371.645L1111.59 267.05C1109.82 261.121 1109.12 254.922 1109.54 248.747C1110.32 238.285 1114.24 224.706 1129.09 223.289Z" fill="#FF4F4F"/>
<path d="M1053.62 221.731L1062 205.695L1076.17 213.725V220.691L1080.66 213.725L1114.07 205.695V225.509L1075.06 229.76L1053.62 221.731Z" fill="#FF4F4F"/>
<path d="M1027.45 246.103C1026.95 247.282 1026.36 248.42 1025.68 249.503C1025.06 250.566 1024.33 251.865 1023.6 253.447C1022.87 255.029 1021.9 256.753 1021.1 258.808C1020.29 260.863 1019.3 263.035 1018.52 265.491C1017.74 267.947 1016.92 270.569 1016.16 273.332C1013.02 285.516 1012.22 298.186 1013.8 310.669C1014.22 313.526 1014.56 316.266 1015.17 318.769C1015.62 321.11 1016.19 323.428 1016.87 325.712C1017.39 327.861 1018.12 329.703 1018.66 331.356C1019.1 332.778 1019.62 334.174 1020.22 335.536C1020.75 336.706 1021.18 337.914 1021.52 339.15C1020.86 338.053 1020.27 336.909 1019.77 335.725C1019.11 334.383 1018.51 333.003 1018 331.592C1017.41 329.939 1016.61 328.097 1016.04 325.972C1015.29 323.646 1014.66 321.281 1014.15 318.887C1013.52 316.36 1013.14 313.621 1012.67 310.716C1011.87 304.452 1011.65 298.128 1012 291.823C1012.46 285.484 1013.5 279.2 1015.1 273.048C1015.93 270.238 1016.66 267.569 1017.63 265.137C1018.43 262.861 1019.35 260.63 1020.39 258.454C1021.19 256.638 1022.08 254.865 1023.06 253.14C1023.77 251.796 1024.56 250.495 1025.42 249.243C1026 248.138 1026.68 247.086 1027.45 246.103Z" fill="#263238"/>
<path d="M1073.67 212.473C1073.45 214.132 1073.03 215.759 1072.41 217.314C1071.49 220.266 1070.05 224.399 1068.59 228.745C1068.33 229.429 1068.09 230.114 1067.86 230.776L1067.6 231.484L1066.96 231.106C1063.91 229.265 1061.07 227.086 1058.5 224.612C1057.4 223.672 1056.46 222.555 1055.72 221.306C1059.47 224.459 1063.41 227.377 1067.53 230.043L1066.63 230.374L1067.36 228.319C1068.92 223.88 1070.41 219.889 1071.52 217.031C1072.03 215.424 1072.75 213.892 1073.67 212.473Z" fill="#263238"/>
<path d="M1101.11 227.209C1099.51 228.105 1097.81 228.825 1096.05 229.358C1092.89 230.563 1088.5 232.122 1083.56 233.798L1082.85 234.058V233.326V232.712C1082.07 227.422 1081.46 222.628 1081.06 219.156C1080.72 217.287 1080.59 215.387 1080.66 213.489C1081.27 215.288 1081.69 217.148 1081.91 219.038C1082.52 222.463 1083.3 227.257 1084.08 232.523V233.137L1083.28 232.641C1088.21 230.988 1092.72 229.547 1095.91 228.556C1097.59 227.906 1099.33 227.454 1101.11 227.209Z" fill="#263238"/>
<path d="M1180.76 340.566C1178.57 341.486 1176.29 342.182 1173.96 342.645C1169.71 343.755 1163.81 345.006 1157.22 346.352C1150.63 347.698 1144.61 348.454 1140.26 348.974C1137.92 349.362 1135.55 349.536 1133.18 349.493C1135.5 348.831 1137.87 348.365 1140.26 348.1C1144.56 347.368 1150.54 346.376 1157.1 345.148C1163.67 343.92 1169.59 342.786 1173.89 341.818C1176.15 341.22 1178.44 340.802 1180.76 340.566Z" fill="#FAFAFA"/>
<path d="M1175.36 311.566C1173.09 312.671 1170.72 313.542 1168.27 314.164C1163.88 315.534 1157.74 317.187 1150.94 318.887C1144.14 320.587 1137.97 322.075 1133.53 323.232C1131.16 323.971 1128.75 324.554 1126.31 324.98C1128.57 323.885 1130.95 323.023 1133.39 322.406C1137.78 321.013 1143.92 319.359 1150.73 317.683C1157.53 316.006 1163.69 314.518 1168.13 313.337C1170.5 312.591 1172.91 312 1175.36 311.566Z" fill="#FAFAFA"/>
<path d="M1137.15 371.645C1136.77 370.754 1136.47 369.829 1136.27 368.882C1135.78 366.851 1135.12 364.3 1134.36 361.254C1132.8 354.807 1130.72 345.88 1128.48 336.008C1126.24 326.137 1124.32 317.116 1122.95 310.668C1122.34 307.622 1121.84 305.048 1121.42 302.97C1121.19 302.032 1121.06 301.075 1121.02 300.112C1121.43 300.983 1121.72 301.904 1121.89 302.852L1123.8 310.479C1125.39 316.927 1127.46 325.854 1129.68 335.749C1131.9 345.644 1133.86 354.641 1135.21 361.065C1135.82 364.135 1136.34 366.709 1136.74 368.787C1137 369.718 1137.14 370.679 1137.15 371.645Z" fill="#263238"/>
<path d="M1172.81 289.32C1172.81 289.65 1137.22 288.965 1093.34 287.785C1049.46 286.604 1013.89 285.423 1013.89 285.045C1013.89 284.667 1049.48 285.376 1093.36 286.557C1137.24 287.737 1172.81 288.965 1172.81 289.32Z" fill="#FAFAFA"/>
<path d="M1160.62 248.865C1160.18 248.998 1159.71 249.07 1159.25 249.078L1155.31 249.409C1151.86 249.692 1146.9 250.023 1140.74 250.401C1128.43 251.133 1111.43 251.936 1092.63 252.455C1073.83 252.975 1056.8 253.069 1044.5 252.998C1038.34 252.998 1033.35 252.998 1029.91 252.809L1025.94 252.668C1025.47 252.664 1025.01 252.625 1024.55 252.55C1025.01 252.483 1025.48 252.483 1025.94 252.55L1029.91 252.431L1044.48 252.243C1056.8 252.101 1073.81 251.841 1092.61 251.345C1111.4 250.849 1128.38 250.164 1140.69 249.645L1155.28 249.054H1159.25C1159.7 248.94 1160.16 248.876 1160.62 248.865Z" fill="#FAFAFA"/>
<path d="M990.561 250.684C990.302 250.448 998.426 240.671 1008.67 228.839C1018.92 217.008 1027.57 207.585 1027.73 207.797C1027.9 208.01 1019.87 217.787 1009.62 229.642C999.37 241.498 990.821 250.826 990.561 250.684Z" fill="#FAFAFA"/>
<path d="M1123.76 333.482C1123.76 333.836 1099.48 331.687 1069.6 328.758C1039.73 325.83 1015.52 323.091 1015.55 322.736C1015.57 322.382 1039.82 324.555 1069.72 327.46C1099.62 330.364 1123.78 333.246 1123.76 333.482Z" fill="#FAFAFA"/>
<path d="M1124.96 366.261C1124.96 366.615 1101.34 366.261 1072.39 365.694C1043.44 365.127 1019.85 364.23 1019.85 363.899C1019.85 363.569 1043.46 363.899 1072.41 364.466C1101.37 365.033 1124.96 365.93 1124.96 366.261Z" fill="#FAFAFA"/>
<path d="M1053.62 389.31C1053.56 388.729 1053.56 388.143 1053.62 387.562C1053.62 386.429 1053.62 384.728 1053.62 382.579C1053.62 378.234 1053.95 371.952 1054.47 364.206C1054.73 360.333 1055.06 356.106 1055.53 351.571C1056 347.037 1056.69 342.125 1057.32 337.118C1058.6 326.94 1059.69 315.722 1060.87 304.056C1062.48 283.893 1065.36 263.851 1069.49 244.048C1071.21 236.491 1072.98 230.445 1074.21 226.312C1074.87 224.352 1075.41 222.77 1075.84 221.589C1075.99 221.024 1076.2 220.478 1076.48 219.959C1076.4 220.539 1076.27 221.109 1076.07 221.66C1075.7 222.864 1075.25 224.47 1074.66 226.383C1073.48 230.539 1071.85 236.609 1070.24 244.166C1066.39 263.969 1063.63 283.971 1062 304.08C1060.82 315.888 1059.64 327.082 1058.36 337.142C1057.68 342.22 1056.97 347.037 1056.45 351.548C1055.93 356.058 1055.55 360.309 1055.22 364.159C1054.61 371.881 1054.25 378.139 1054.02 382.461L1053.73 387.444C1053.76 388.068 1053.72 388.694 1053.62 389.31Z" fill="#263238"/>
<path d="M1117.64 285.022H1091.94V291.705H1117.64V285.022Z" fill="#FAFAFA"/>
<g opacity="0.3">
<path d="M1121.75 305.355C1116.11 314.188 1113.27 324.514 1113.59 334.986C1113.91 345.458 1117.38 355.591 1123.54 364.064C1125.12 353.043 1126.69 342.023 1128.27 331.002" fill="black"/>
</g>
<path d="M1106.87 140.374C1109.89 146.585 1108.41 154.024 1106.21 160.589C1104.01 167.154 1101.2 173.79 1101.77 180.686C1102.29 187.086 1105.74 192.967 1106.35 199.367C1107.41 210.135 1100.52 219.912 1097.68 230.374C1095.92 237.122 1095.83 244.199 1097.44 250.988C1099.04 257.776 1102.28 264.069 1106.87 269.317C1107.28 269.897 1107.82 270.384 1108.43 270.746C1109.04 271.108 1109.73 271.337 1110.44 271.419C1111.25 271.305 1112.01 270.931 1112.59 270.352C1113.17 269.773 1113.55 269.02 1113.67 268.207C1113.87 266.58 1113.83 264.934 1113.55 263.319C1112.25 247.874 1127.11 235.499 1129.26 220.149C1130.68 210.159 1126.54 200.288 1125.93 190.227C1125.15 177.569 1129.92 165.289 1131.48 152.701C1132.2 148.41 1131.95 144.013 1130.75 139.831C1130.13 137.746 1129.02 135.843 1127.5 134.284C1125.99 132.724 1124.12 131.556 1122.06 130.88C1119.96 130.3 1117.73 130.511 1115.78 131.474C1113.83 132.437 1112.31 134.083 1111.5 136.099" fill="#263238"/>
<path d="M820.904 234.979L770.909 266.625L806.333 169.681L815.898 150.576C817.173 148.97 818.732 147.128 820.621 145.026C822.281 143.232 824.239 141.738 826.407 140.61C829.032 139.079 831.863 137.934 834.814 137.209C835.399 137.167 835.957 136.942 836.408 136.567C836.86 136.192 837.182 135.685 837.331 135.117C837.479 134.549 837.446 133.949 837.236 133.401C837.026 132.853 836.65 132.384 836.16 132.061C833.917 130.88 826.289 131.801 818.755 136.784C811.222 141.767 815.543 128.211 817.055 123.276C818.566 118.34 822.463 102.871 821.306 101.195C819.605 98.8331 816.701 100.132 815.307 105.091C813.914 110.051 808.742 124.645 806.191 123.724C803.641 122.803 811.6 97.7467 811.6 97.7467C811.6 97.7467 814.174 92.6693 811.245 91.5121C805.955 89.4339 799.437 116.64 798.894 119.237C798.516 121.056 795.682 120.158 796.202 118.245C796.721 116.333 804.727 93.4722 799.366 91.2996C795.234 89.6228 793.793 113.64 789.519 117.442C785.244 121.245 792.471 99.3526 788.456 97.912C786.968 97.3689 785.787 97.1799 783.473 110.358C782.339 116.758 781.111 139.193 781.111 139.193L769.469 162.148L769.752 162.407L722.095 263.059C712.955 287.194 727.881 306.701 742.83 315.533C749.67 319.569 757.51 321.591 765.449 321.365C773.387 321.139 781.101 318.676 787.7 314.258L845.441 275.693L820.904 234.979Z" fill="#EB996E"/>
<path d="M1089.68 447.358C1090.88 449.129 1092.2 451.255 1093.67 453.805C1094.92 456.001 1095.77 458.399 1096.2 460.89C1096.87 463.99 1097.11 467.17 1096.9 470.336C1096.75 470.938 1096.79 471.574 1097.02 472.152C1097.24 472.73 1097.65 473.221 1098.18 473.552C1098.7 473.884 1099.32 474.039 1099.94 473.996C1100.56 473.953 1101.15 473.713 1101.63 473.312C1103.52 471.47 1105 463.629 1102.57 454.632C1100.14 445.634 1112.02 454.183 1116.43 457.229C1120.85 460.276 1134.9 469.037 1136.91 468.423C1139.84 467.526 1139.44 464.196 1134.95 461.339C1130.46 458.481 1117.73 448.68 1119.43 446.437C1121.13 444.193 1143.33 459.992 1143.33 459.992C1143.33 459.992 1147.51 464.125 1149.59 461.598C1153.32 457.04 1128.5 441.997 1126.12 440.627C1124.44 439.683 1126.12 437.179 1127.96 438.266C1129.8 439.352 1149.71 454.514 1153.56 449.908C1156.51 446.366 1133.27 437.345 1130.86 431.913C1128.46 426.481 1147.8 440.556 1150.49 437.061C1151.48 435.762 1152.05 434.7 1139.77 428.182C1133.82 425.017 1112.04 416.657 1112.04 416.657L978.494 244.26L939.764 279.165L1089.68 447.358Z" fill="#EB996E"/>
<path d="M929.16 128.306L920.823 225.013L872.387 221.14C872.08 215.496 872.387 193.604 872.387 193.604C872.387 193.604 852.243 190.487 852.006 170.342C851.865 160.542 853.282 140.326 854.746 122.118C855.526 112.383 860.094 103.342 867.469 96.9387C874.843 90.5355 884.436 87.2812 894.185 87.8753C899.161 88.1629 904.029 89.446 908.501 91.6486C912.972 93.8512 916.956 96.9284 920.218 100.698C923.479 104.468 925.951 108.854 927.486 113.596C929.022 118.338 929.591 123.34 929.16 128.306Z" fill="#EB996E"/>
<path d="M872.458 193.321C881.759 193.498 890.901 190.9 898.719 185.858C898.719 185.858 892.508 200.358 872.411 198.54L872.458 193.321Z" fill="#D1734A"/>
<path d="M859.611 138.744C859.942 139.122 862.209 137.634 865.302 137.776C868.396 137.918 870.592 139.618 870.947 139.24C871.301 138.862 870.781 138.39 869.837 137.634C868.552 136.649 866.997 136.081 865.381 136.005C863.764 135.929 862.163 136.349 860.792 137.209C859.8 137.894 859.446 138.555 859.611 138.744Z" fill="#263238"/>
<path d="M887.95 139.169C888.328 139.524 890.453 137.847 893.547 137.776C896.641 137.705 898.955 139.169 899.286 138.791C899.616 138.414 899.073 137.941 898.058 137.256C896.692 136.364 895.083 135.918 893.453 135.981C891.843 136.025 890.288 136.579 889.013 137.563C888.092 138.319 887.785 139.004 887.95 139.169Z" fill="#263238"/>
<path d="M878.338 157.897C876.709 157.373 875.018 157.063 873.308 156.976C872.505 156.976 871.773 156.74 871.632 156.196C871.558 155.374 871.739 154.55 872.151 153.835C872.907 151.914 873.694 149.907 874.513 147.813C876.683 142.71 878.444 137.443 879.779 132.061C877.204 136.981 875.024 142.098 873.261 147.364C872.482 149.466 871.75 151.473 871.017 153.41C870.537 154.366 870.396 155.456 870.616 156.503C870.729 156.783 870.905 157.033 871.13 157.234C871.355 157.435 871.624 157.581 871.915 157.661C872.353 157.785 872.806 157.849 873.261 157.849C874.946 158.063 876.65 158.079 878.338 157.897Z" fill="#263238"/>
<path d="M887.454 160.022C886.935 160.022 886.935 163.352 884.053 165.737C881.172 168.122 877.606 167.768 877.583 168.24C877.559 168.713 878.386 168.878 879.944 168.925C881.913 168.948 883.826 168.279 885.352 167.036C886.798 165.855 887.736 164.164 887.974 162.313C888.045 160.849 887.667 159.998 887.454 160.022Z" fill="#263238"/>
<path d="M888.777 124.834C889.084 125.684 892.177 125.283 895.861 125.732C899.546 126.18 902.427 127.149 902.946 126.393C903.159 126.039 902.639 125.236 901.458 124.433C899.882 123.41 898.085 122.779 896.216 122.591C894.363 122.369 892.484 122.596 890.737 123.252C889.32 123.795 888.659 124.456 888.777 124.834Z" fill="#263238"/>
<path d="M860.296 126.251C860.933 127.078 863.366 126.251 866.318 126.251C869.27 126.251 871.773 126.794 872.34 125.968C872.6 125.543 872.198 124.74 871.112 123.984C869.645 123.072 867.942 122.613 866.216 122.663C864.49 122.713 862.817 123.271 861.406 124.268C860.367 125.023 860.012 125.873 860.296 126.251Z" fill="#263238"/>
<path d="M907.292 106.225C910.51 108.749 912.626 112.423 913.196 116.474V116.876C913.998 122.614 913.833 128.471 914.683 134.21C915.231 140.032 917.728 145.498 921.768 149.725C923.516 151.355 926.491 152.489 928.026 150.576C928.52 149.783 928.775 148.864 928.758 147.931C929.821 134.068 933.623 121.764 933.482 107.24C933.489 105.298 933.032 103.383 932.148 101.653C931.265 99.924 929.982 98.4307 928.404 97.2979C925.381 95.1016 921.674 92.8581 918.297 94.4404C914.919 96.0226 910.551 102.375 907.929 105.044" fill="#263238"/>
<path d="M922.359 137.469C922.713 137.327 936.198 133.383 935.773 147.151C935.347 160.92 921.603 157.661 921.603 157.259C921.603 156.858 922.359 137.469 922.359 137.469Z" fill="#EB996E"/>
<path d="M925.948 152.111C925.948 152.111 926.184 152.3 926.586 152.489C927.161 152.725 927.806 152.725 928.381 152.489C929.29 151.953 930.04 151.185 930.555 150.264C931.069 149.343 931.33 148.301 931.309 147.246C931.372 146.069 931.178 144.893 930.742 143.798C930.626 143.365 930.406 142.967 930.102 142.638C929.797 142.308 929.417 142.058 928.995 141.909C928.721 141.823 928.425 141.837 928.161 141.95C927.897 142.062 927.682 142.266 927.554 142.523C927.365 142.901 927.436 143.16 927.365 143.184C927.294 143.208 927.082 142.948 927.2 142.381C927.293 142.044 927.491 141.746 927.767 141.531C928.159 141.258 928.641 141.148 929.113 141.224C929.66 141.368 930.163 141.647 930.575 142.034C930.987 142.422 931.297 142.907 931.474 143.444C932.031 144.655 932.275 145.987 932.183 147.317C932.211 148.544 931.877 149.752 931.221 150.789C930.566 151.827 929.619 152.648 928.499 153.15C928.124 153.241 927.733 153.25 927.354 153.176C926.975 153.103 926.617 152.949 926.302 152.725C925.972 152.465 925.901 152.135 925.948 152.111Z" fill="#D1734A"/>
<path d="M919.005 96.6841C922.382 91.158 913.101 83.2466 906.3 81.1211C899.498 78.9957 890.548 82.2783 883.77 84.5219C879.519 85.9388 875.245 87.9226 870.758 87.7336C867.752 87.425 864.808 86.677 862.02 85.5137C859.236 84.3287 856.236 83.7337 853.211 83.7661C851.699 83.8061 850.226 84.2555 848.949 85.0664C847.673 85.8774 846.64 87.0196 845.961 88.3713C845.665 89.0612 845.522 89.8072 845.541 90.5578C845.561 91.3084 845.744 92.0457 846.076 92.7191C846.408 93.3925 846.882 93.9858 847.466 94.4583C848.049 94.9308 848.728 95.2712 849.456 95.4561C848.5 94.9362 847.432 94.6552 846.343 94.637C845.255 94.6188 844.178 94.8639 843.205 95.3515C842.232 95.8391 841.391 96.5547 840.754 97.4374C840.117 98.3201 839.702 99.3436 839.546 100.421C839.39 101.498 839.496 102.597 839.856 103.625C840.217 104.652 840.82 105.577 841.614 106.321C842.409 107.065 843.372 107.606 844.42 107.897C845.469 108.189 846.573 108.223 847.638 107.996C845.677 106.508 842.678 108.964 842.914 111.42C843.179 112.627 843.753 113.743 844.582 114.658C845.41 115.574 846.464 116.257 847.638 116.64C853.376 119.143 860.083 118.34 866.034 116.356C871.986 114.372 877.488 111.232 883.369 109.083C889.249 106.933 899.144 103.084 905.048 105.162C909.417 106.697 912.44 111.94 914.896 110.783C916.059 110.167 917.06 109.286 917.819 108.211C918.578 107.136 919.073 105.897 919.265 104.595C919.592 101.985 919.504 99.3385 919.005 96.7549" fill="#263238"/>
<path d="M847.779 94.96C847.779 94.96 848.488 95.9755 849.976 97.605C852.101 99.825 854.724 101.509 857.627 102.517C861.883 104.073 866.578 103.904 870.71 102.045C875.434 99.943 879.401 95.7393 884.03 91.7718C888.296 87.7614 893.7 85.1709 899.498 84.3564C901.897 84.061 904.331 84.3181 906.615 85.108C908.9 85.898 910.973 87.2 912.676 88.9143C913.773 90.1091 914.614 91.5147 915.15 93.0453C915.686 94.5759 915.905 96.1996 915.793 97.8175C915.722 98.6843 915.523 99.5358 915.203 100.344C914.967 100.888 914.801 101.147 914.754 101.124C915.02 100.03 915.194 98.9164 915.274 97.7939C915.28 94.7292 914.094 91.7821 911.968 89.5756C910.353 88.0264 908.412 86.8577 906.287 86.1549C904.162 85.4521 901.907 85.233 899.687 85.5136C894.13 86.4033 888.971 88.9462 884.88 92.8109C880.346 96.684 876.213 101.006 871.206 103.178C869.011 104.151 866.645 104.677 864.244 104.726C861.844 104.774 859.458 104.345 857.226 103.462C854.215 102.345 851.551 100.456 849.503 97.9828C848.952 97.3164 848.47 96.5965 848.063 95.8338C847.927 95.5575 847.832 95.2633 847.779 94.96Z" fill="#455A64"/>
<path d="M925.877 136.831C925.877 136.831 925.287 136.453 924.768 135.367C924.069 133.797 923.832 132.06 924.083 130.36C924.366 125.921 928.31 121.174 928.806 115.034C929.2 112.198 928.705 109.31 927.389 106.768C926.22 104.767 924.416 103.213 922.264 102.352C920.821 101.734 919.239 101.514 917.683 101.714C916.573 101.903 915.982 102.163 915.935 102.045C915.888 101.927 916.407 101.549 917.565 101.195C919.236 100.776 920.993 100.858 922.618 101.431C925.054 102.287 927.122 103.955 928.475 106.154C930.017 108.877 930.646 112.022 930.27 115.128C929.923 118.161 929.026 121.106 927.625 123.819C926.497 125.915 925.663 128.155 925.145 130.478C924.719 132.62 924.975 134.842 925.877 136.831Z" fill="#455A64"/>
<path d="M825.368 293.972L803.05 307.835L777.734 259.186C788.857 251.156 824.517 228.202 833.562 222.298C835.8 220.798 838.171 219.509 840.647 218.448C846.666 216.093 852.972 214.552 859.398 213.867C865.113 213.087 869.459 212.709 872.269 212.355C888.536 217.504 905.997 217.504 922.264 212.355C924.224 212.355 926.137 212.591 927.979 212.804C944.51 215.165 960.546 226.761 970.488 237.53L1009.88 272.954L971.244 319.147L959.294 304.977L962.104 370.228L973.511 451.373H819.18C819.18 451.373 818.85 432.244 820.243 405.652C822.227 368.244 824.187 310.078 824.187 310.078" fill="#FF4F4F"/>
<path d="M823.856 334.993C824.438 331.439 824.77 327.848 824.848 324.248C825.297 317.635 825.887 308.472 826.714 298.27C827.54 288.068 828.461 279.047 829.075 272.434C829.6 268.884 829.861 265.301 829.855 261.712C828.88 265.173 828.216 268.714 827.871 272.292C826.903 278.881 825.816 288.021 824.966 298.128C824.116 308.236 823.738 317.446 823.596 324.106C823.36 327.735 823.447 331.379 823.856 334.993Z" fill="#263238"/>
<path d="M956.484 270.616C956.06 273.055 955.933 275.537 956.106 278.008C956.106 282.565 956.389 288.871 956.885 295.814C957.381 302.757 958.09 309.015 958.751 313.526C958.916 315.999 959.416 318.438 960.239 320.776C960.394 318.317 960.299 315.848 959.955 313.408C959.554 308.189 959.105 302.238 958.609 295.672C958.113 289.107 957.712 283.156 957.31 277.96C957.31 275.489 957.033 273.025 956.484 270.616Z" fill="#263238"/>
<path d="M943.707 278.338H918.013V285.022H943.707V278.338Z" fill="#FAFAFA"/>
<path d="M967.914 235.688C965.92 235.1 963.852 234.806 961.774 234.814C956.091 235.155 950.632 237.149 946.069 240.553C943.07 242.536 940 245.016 936.623 247.519C932.933 250.195 928.975 252.483 924.815 254.344C920.163 256.319 915.308 257.777 910.338 258.69C904.989 259.595 899.553 259.881 894.138 259.54C888.721 259.217 883.365 258.218 878.197 256.564C875.739 255.786 873.326 254.872 870.97 253.825C868.729 252.793 866.552 251.625 864.452 250.33C856.069 245.394 850.495 238.522 844.615 234.46C840.15 230.931 834.574 229.106 828.887 229.311C826.817 229.543 824.799 230.109 822.912 230.988L823.266 230.752C823.602 230.517 823.957 230.312 824.329 230.138C825.745 229.445 827.271 229.006 828.839 228.839C834.677 228.436 840.462 230.174 845.111 233.728C851.18 237.837 856.801 244.615 865.019 249.361C867.097 250.626 869.25 251.762 871.466 252.762C873.779 253.771 876.144 254.653 878.551 255.407C883.631 257.016 888.89 257.992 894.208 258.312C899.52 258.644 904.851 258.374 910.102 257.509C914.961 256.616 919.711 255.207 924.272 253.305C928.385 251.509 932.303 249.293 935.962 246.693C939.409 244.331 942.527 241.781 945.597 239.821C950.316 236.409 955.953 234.5 961.774 234.342C963.375 234.333 964.968 234.572 966.497 235.05C966.884 235.165 967.263 235.307 967.631 235.475C967.796 235.593 967.914 235.664 967.914 235.688Z" fill="#FAFAFA"/>
<path d="M825.604 285.352C825.415 285.352 823.903 283.321 820.881 280.629C819.061 279.007 817.092 277.56 815 276.307C812.411 274.812 809.673 273.593 806.829 272.67C803.976 271.794 801.04 271.216 798.067 270.946C795.629 270.755 793.178 270.795 790.747 271.064C786.614 271.56 784.134 272.458 784.063 272.222C783.992 271.985 784.63 271.867 785.74 271.466C787.322 270.883 788.961 270.464 790.628 270.214C793.11 269.814 795.628 269.68 798.138 269.813C801.214 270.032 804.256 270.594 807.207 271.49C810.132 272.448 812.937 273.74 815.567 275.339C817.712 276.688 819.7 278.272 821.495 280.062C822.186 280.727 822.833 281.437 823.431 282.188C823.931 282.72 824.382 283.297 824.777 283.912C825.344 284.738 825.675 285.281 825.604 285.352Z" fill="#FAFAFA"/>
<path d="M955.964 308.095C955.6 308.376 955.203 308.614 954.783 308.803L951.265 310.645L948.691 311.968C947.722 312.416 946.66 312.818 945.526 313.314C943.164 314.235 940.803 315.416 937.756 316.337L933.033 317.872C931.427 318.391 929.703 318.769 927.956 319.265C924.46 320.28 920.611 320.918 916.573 321.627C907.785 322.975 898.892 323.521 890.005 323.256C881.117 322.841 872.287 321.608 863.626 319.572C859.658 318.486 855.88 317.517 852.479 316.218C850.755 315.604 849.078 315.109 847.52 314.447L843.033 312.534C840.151 311.401 837.719 310.007 835.523 308.897C834.436 308.331 833.397 307.835 832.5 307.315L830.138 305.804L826.761 303.678C826.348 303.455 825.967 303.177 825.628 302.852C826.07 303.018 826.497 303.223 826.903 303.466L830.374 305.379L832.878 306.796C833.799 307.292 834.838 307.74 835.924 308.283C838.144 309.323 840.647 310.645 843.481 311.731L847.945 313.573C849.503 314.188 851.18 314.66 852.904 315.274C856.305 316.502 859.989 317.423 863.98 318.462C881.18 322.604 899.026 323.318 916.502 320.564C920.493 319.832 924.319 319.241 927.79 318.202C929.538 317.73 931.262 317.399 932.868 316.903L937.473 315.439C940.425 314.589 942.975 313.455 945.266 312.605C946.4 312.157 947.486 311.779 948.454 311.354L951.052 310.149L954.665 308.52C955.074 308.312 955.512 308.169 955.964 308.095Z" fill="#FAFAFA"/>
<path d="M998.237 268.349C995.852 267.986 993.446 267.789 991.034 267.758C985.241 268.035 979.605 269.73 974.621 272.694C969.646 275.725 965.028 279.306 960.853 283.369C959.158 285.116 957.334 286.735 955.397 288.21C956.83 286.239 958.452 284.412 960.239 282.755C964.302 278.439 968.934 274.697 974.007 271.631C979.153 268.551 985.036 266.919 991.034 266.908C992.837 266.923 994.631 267.169 996.371 267.64C997.032 267.759 997.664 267.999 998.237 268.349Z" fill="#FAFAFA"/>
<path d="M959.082 357.853C958.679 358.109 958.252 358.323 957.806 358.491L954.075 360.168C952.469 360.9 950.462 361.75 948.076 362.529C945.691 363.308 943.046 364.442 940 365.316L935.277 366.756C933.6 367.252 931.852 367.607 930.034 368.079C926.421 369.047 922.5 369.732 918.367 370.44C900.405 373.515 882.064 373.674 864.051 370.913C859.918 370.181 855.974 369.567 852.243 368.551C850.424 368.103 848.653 367.772 847 367.3L842.277 365.93C839.207 365.127 836.514 364.088 834.129 363.285C831.744 362.482 829.713 361.679 828.084 360.923L824.329 359.341C823.886 359.166 823.459 358.952 823.053 358.703C823.526 358.774 823.987 358.909 824.423 359.105L828.272 360.498C829.926 361.112 831.933 361.868 834.342 362.6C836.751 363.332 839.443 364.3 842.513 364.962L847.236 366.237C848.913 366.662 850.684 366.993 852.479 367.394C856.092 368.268 860.036 368.835 864.145 369.519C882.08 372.157 900.314 372.006 918.202 369.071C922.311 368.315 926.232 367.677 929.821 366.709C931.616 366.26 933.387 365.93 935.04 365.457L939.764 364.088C942.81 363.285 945.502 362.269 947.887 361.49C950.273 360.711 952.28 359.955 953.933 359.294L957.735 357.853C958.182 357.791 958.635 357.791 959.082 357.853Z" fill="#FAFAFA"/>
<path d="M425.336 96.9202C415.031 96.9247 405.045 100.495 397.072 107.025C389.1 113.555 383.633 122.643 381.599 132.746C379.781 143.231 381.765 154.638 376.876 164.108C370.476 176.671 353.685 182.457 349.93 196.06C346.766 207.419 354.228 219.676 351.04 231.083C348.679 239.301 341.381 245.087 337.792 252.809C336.067 256.568 335.312 260.699 335.597 264.825C335.881 268.951 337.196 272.939 339.421 276.425C341.725 279.848 344.927 282.57 348.677 284.29C352.427 286.011 356.579 286.665 360.676 286.179C365.847 285.423 370.523 282.802 375.506 281.172C386.252 277.653 397.918 278.811 409.112 280.487C420.306 282.164 431.807 283.864 442.812 281.267C453.817 278.669 464.373 270.521 466.027 259.327C467.089 252.077 464.35 244.874 462.106 237.884C447.441 191.715 454.219 141.342 443.804 94.0391" fill="#263238"/>
<path d="M384.339 139.453C381.535 135.786 378.218 132.541 374.491 129.817C370.723 127.077 366.058 125.862 361.431 126.417C359.14 126.741 356.997 127.741 355.277 129.289C353.556 130.837 352.336 132.863 351.772 135.107C351.567 136.229 351.588 137.38 351.834 138.493C352.081 139.606 352.549 140.658 353.209 141.587C353.87 142.517 354.71 143.304 355.68 143.903C356.65 144.501 357.731 144.899 358.857 145.073C357.944 144.733 356.968 144.596 355.997 144.673C355.026 144.75 354.083 145.038 353.235 145.517C352.387 145.996 351.654 146.655 351.087 147.447C350.52 148.239 350.134 149.146 349.954 150.104C349.751 152.073 350.188 154.056 351.201 155.757C352.213 157.459 353.747 158.789 355.575 159.55C357.425 160.261 359.398 160.6 361.379 160.547C363.361 160.495 365.313 160.051 367.123 159.243C370.728 157.618 374.096 155.513 377.136 152.985L387.858 144.884" fill="#263238"/>
<path d="M347.309 273.639C346.651 273.475 346.027 273.195 345.467 272.812C343.837 271.676 342.593 270.07 341.901 268.207C340.761 265.264 340.685 262.014 341.688 259.021C343.139 255.167 345.402 251.672 348.324 248.771C351.862 245.403 355.029 241.666 357.771 237.624C360.408 232.717 361.042 226.978 359.542 221.613C358.479 215.827 356.118 209.805 356.165 203.169C356.189 199.737 357.197 196.385 359.07 193.51C361.082 190.652 363.663 188.24 366.65 186.425C372.554 182.67 379.049 180.639 384.268 176.979C386.833 175.306 389.014 173.108 390.668 170.531C392.17 167.901 393.186 165.021 393.667 162.03C394.331 156.456 394.694 150.851 394.753 145.239C394.974 140.296 395.815 135.401 397.257 130.668C399.244 123.685 403.571 117.599 409.513 113.428C411.127 112.328 412.883 111.454 414.733 110.83C415.204 110.667 415.685 110.533 416.173 110.429C416.504 110.429 416.693 110.429 416.693 110.429C414.226 111.25 411.883 112.402 409.726 113.853C403.982 118.065 399.822 124.087 397.918 130.951C396.546 135.631 395.753 140.461 395.556 145.333C395.546 150.984 395.215 156.629 394.565 162.242C394.099 165.337 393.057 168.316 391.494 171.027C389.792 173.857 387.486 176.276 384.74 178.112C379.332 181.938 372.814 183.993 367.099 187.559C364.327 189.259 361.926 191.5 360.038 194.147C358.281 196.821 357.338 199.946 357.322 203.145C357.322 209.498 359.542 215.473 360.605 221.353C361.233 224.244 361.432 227.213 361.195 230.162C360.947 232.971 360.058 235.685 358.597 238.097C355.802 242.174 352.571 245.935 348.962 249.314C346.083 252.104 343.822 255.467 342.326 259.186C341.314 262.035 341.314 265.146 342.326 267.995C342.939 269.802 344.073 271.388 345.585 272.553C346.671 273.355 347.356 273.568 347.309 273.639Z" fill="#455A64"/>
<path d="M380.419 154C381.463 151.044 382.16 147.977 382.497 144.86C382.438 141.727 382.01 138.612 381.222 135.579C382.993 138.362 383.866 141.621 383.722 144.916C383.578 148.211 382.425 151.382 380.419 154Z" fill="#455A64"/>
<path d="M392.723 230.705C392.723 230.705 392.416 230.421 391.872 229.807C391.123 228.846 390.519 227.779 390.078 226.643C388.663 222.369 388.73 217.743 390.266 213.512C391.872 208.01 396.1 202.649 400.28 196.674C402.507 193.605 404.318 190.254 405.664 186.708C406.943 182.838 407.597 178.788 407.601 174.711C407.742 166.304 406.136 158.322 405.641 150.954C404.926 144.372 405.734 137.714 408.002 131.494C409.561 127.302 412.25 123.623 415.772 120.867C416.744 120.147 417.789 119.529 418.889 119.025C419.262 118.831 419.659 118.688 420.07 118.6C418.688 119.401 417.356 120.285 416.079 121.245C412.757 124.062 410.247 127.714 408.805 131.825C406.743 137.953 406.081 144.465 406.869 150.883C407.412 158.156 409.065 166.139 408.923 174.735C408.919 178.942 408.233 183.122 406.892 187.11C405.496 190.748 403.613 194.18 401.295 197.312C397.021 203.31 392.841 208.506 391.188 213.843C389.613 217.902 389.414 222.365 390.621 226.548C391.153 228.013 391.858 229.408 392.723 230.705Z" fill="#455A64"/>
<path d="M330.353 235.593C330.353 235.593 330.589 235.971 331.038 236.68C331.736 237.668 332.659 238.477 333.73 239.041C335.425 239.941 337.343 240.334 339.256 240.175C341.786 239.97 344.139 238.794 345.821 236.892C347.839 234.552 349.121 231.669 349.505 228.603C349.914 225.062 349.626 221.476 348.655 218.047C347.734 214.362 346.294 210.608 345.255 206.522C343.943 202.315 343.611 197.864 344.286 193.51C345.222 189.173 347.32 185.173 350.356 181.938C353.11 178.967 356.174 176.299 359.495 173.979C362.589 171.618 365.682 169.775 368.422 167.768C370.933 165.935 373.301 163.914 375.507 161.722C378.849 158.656 381.353 154.787 382.78 150.481C383.197 148.866 383.505 147.225 383.701 145.569C383.854 147.259 383.702 148.963 383.253 150.599C381.98 155.094 379.535 159.169 376.168 162.407C373.973 164.675 371.604 166.767 369.083 168.666C366.344 170.72 363.274 172.68 360.227 174.971C356.939 177.253 353.9 179.873 351.159 182.788C348.29 185.876 346.3 189.676 345.396 193.793C344.775 197.974 345.089 202.241 346.317 206.286C347.38 210.253 348.679 214.055 349.647 217.834C350.64 221.406 350.897 225.142 350.403 228.815C349.989 232.054 348.606 235.091 346.435 237.53C344.601 239.532 342.061 240.743 339.351 240.907C337.317 241.018 335.295 240.525 333.541 239.49C332.419 238.865 331.501 237.931 330.896 236.798C330.71 236.525 330.574 236.221 330.495 235.9C330.376 235.711 330.329 235.593 330.353 235.593Z" fill="#263238"/>
<path d="M479.96 119.45C481.755 131.636 485.061 143.68 490.327 151.237C494.555 157.283 502.797 160.683 504.048 168.099C505.111 174.239 501.427 180.355 502.017 186.543C502.962 196.343 513.825 202.295 516.801 211.623C519.351 219.393 515.833 228.154 509.905 233.822C503.977 239.49 496.042 242.442 488.155 244.567C476.89 247.614 463.216 248.535 455.092 240.127C449.543 234.342 448.315 225.793 447.606 217.834C445.717 196.58 445.788 175.065 445.882 153.669" fill="#263238"/>
<path d="M406.302 139.948C405.689 135.067 406.065 130.112 407.408 125.379C408.751 120.645 411.033 116.231 414.119 112.399C417.204 108.566 421.029 105.394 425.366 103.072C429.704 100.749 434.464 99.3238 439.364 98.8802C458.918 97.0146 476.3 111.562 479.228 130.998C481.802 148.025 483.951 165.218 483.951 171.452C483.715 190.345 472.686 197.619 468.223 199.791C466.623 200.366 464.97 200.778 463.287 201.019C463.254 201.025 463.224 201.042 463.202 201.068C463.18 201.094 463.169 201.127 463.169 201.161L467.349 222.77C469.238 236.939 461.351 249.55 447.205 251.628C433.059 253.707 421.936 242.82 419.763 228.65L406.302 139.948Z" fill="#FFBE9D"/>
<path d="M475.355 139.216C475.048 139.665 472.568 138.319 469.38 138.791C466.192 139.264 464.09 141.153 463.689 140.87C463.287 140.586 463.689 139.972 464.68 139.075C465.925 137.926 467.49 137.184 469.168 136.949C470.787 136.724 472.437 137.004 473.891 137.752C475.095 138.366 475.52 139.027 475.355 139.216Z" fill="#263238"/>
<path d="M446.638 144.837C446.331 145.286 443.851 143.94 440.663 144.412C437.475 144.884 435.373 146.774 434.972 146.49C434.57 146.207 434.972 145.593 435.963 144.695C437.208 143.546 438.773 142.805 440.45 142.57C442.07 142.345 443.72 142.625 445.174 143.373C446.354 143.987 446.803 144.554 446.638 144.837Z" fill="#263238"/>
<path d="M458.564 163.21C460.163 162.435 461.853 161.864 463.594 161.51C464.397 161.321 465.153 161.038 465.2 160.471C465.16 159.608 464.845 158.781 464.303 158.109C463.264 156.244 462.154 154.307 460.996 152.276C458.005 147.348 455.407 142.191 453.227 136.855C453.581 136.666 457.596 143.278 462.224 151.615L465.436 157.495C466.099 158.402 466.418 159.516 466.334 160.636C466.253 160.941 466.105 161.225 465.901 161.466C465.696 161.707 465.441 161.9 465.153 162.029C464.725 162.22 464.271 162.347 463.807 162.407C462.103 162.91 460.34 163.18 458.564 163.21Z" fill="#263238"/>
<path d="M463.027 201.067C463.027 201.067 450.865 203.853 434.145 196.863C434.145 196.863 441.23 212.402 464.161 206.876L463.027 201.067Z" fill="#EB996E"/>
<path d="M458.328 171.074C457.608 170.405 456.73 169.928 455.776 169.689C454.822 169.449 453.824 169.455 452.872 169.705C452.189 169.858 451.542 170.146 450.971 170.551C450.399 170.957 449.914 171.472 449.543 172.066C449.191 172.661 449.031 173.351 449.086 174.04C449.141 174.729 449.408 175.384 449.85 175.916C450.444 176.411 451.172 176.718 451.942 176.798C452.712 176.878 453.488 176.727 454.171 176.364C455.597 175.615 456.858 174.587 457.879 173.342C458.205 173.032 458.47 172.663 458.658 172.255C458.752 172.064 458.786 171.85 458.757 171.639C458.727 171.429 458.636 171.232 458.493 171.074" fill="#EB996E"/>
<path d="M449.495 166.776C450.015 166.776 450.535 170.13 453.841 172.161C457.147 174.192 460.784 173.271 460.926 173.743C461.067 174.215 460.193 174.522 458.564 174.806C456.547 175.115 454.485 174.714 452.731 173.672C451.041 172.665 449.812 171.038 449.307 169.138C448.999 167.697 449.259 166.8 449.495 166.776Z" fill="#263238"/>
<path d="M445.008 135.745C444.819 136.642 441.56 136.713 437.924 137.705C434.287 138.697 431.382 140.067 430.839 139.453C430.296 138.839 430.839 138.225 432.067 137.091C433.544 135.826 435.29 134.913 437.172 134.422C439.054 133.931 441.023 133.875 442.93 134.257C444.276 134.729 445.079 135.296 445.008 135.745Z" fill="#263238"/>
<path d="M472.663 130.384C472.214 131.187 469.9 130.762 467.255 131.116C464.61 131.47 462.532 132.321 461.823 131.636C461.563 131.305 461.823 130.526 462.673 129.699C463.87 128.724 465.337 128.139 466.877 128.022C468.429 127.841 470 128.129 471.388 128.849C472.45 129.345 472.875 130.053 472.663 130.384Z" fill="#263238"/>
<path d="M469.805 141.909C469.687 142.667 469.867 143.443 470.307 144.072C470.747 144.702 471.413 145.136 472.167 145.286C472.536 145.368 472.918 145.376 473.291 145.309C473.663 145.242 474.019 145.1 474.336 144.893C474.653 144.687 474.925 144.418 475.136 144.104C475.348 143.79 475.495 143.437 475.567 143.066C475.686 142.307 475.506 141.532 475.066 140.902C474.626 140.273 473.959 139.838 473.206 139.689C472.836 139.606 472.454 139.598 472.082 139.665C471.709 139.733 471.354 139.874 471.037 140.081C470.72 140.288 470.448 140.556 470.236 140.87C470.025 141.184 469.878 141.537 469.805 141.909Z" fill="#263238"/>
<path d="M440.663 147.34C440.532 148.101 440.707 148.882 441.149 149.515C441.592 150.147 442.265 150.579 443.025 150.717C443.394 150.804 443.777 150.816 444.151 150.751C444.525 150.687 444.882 150.549 445.201 150.344C445.521 150.139 445.796 149.872 446.01 149.559C446.224 149.246 446.374 148.893 446.449 148.521C446.567 147.762 446.388 146.987 445.947 146.358C445.507 145.728 444.841 145.293 444.087 145.144C443.718 145.054 443.334 145.04 442.959 145.103C442.584 145.165 442.225 145.304 441.905 145.509C441.585 145.714 441.31 145.982 441.096 146.297C440.883 146.612 440.735 146.967 440.663 147.34Z" fill="#263238"/>
<path d="M408.356 229.359L479.96 215.402L477.929 255.313C477.929 255.313 446.071 265.208 444.867 265.798C443.662 266.389 422.857 265.798 422.857 265.798L408.356 229.359Z" fill="#FFBE9D"/>
<path d="M329.007 500.447C328.464 502.265 327.897 504.391 327.33 506.965C326.846 509.167 326.75 511.436 327.047 513.672C327.28 516.454 327.908 519.19 328.912 521.796C330.069 524.157 327.826 526.519 325.748 525.55C323.669 524.582 320.316 518.23 320.033 509.94C319.749 501.651 311.861 512.066 308.933 515.797C306.005 519.528 296.369 530.675 294.504 530.699C291.764 530.699 291.245 527.77 294.268 524.11C297.29 520.449 305.58 508.807 303.525 507.343C301.47 505.878 286.805 525.149 286.805 525.149C286.805 525.149 284.443 529.872 281.916 528.172C277.547 525.291 294.669 505.973 296.346 504.178C297.503 502.926 295.33 501.273 294.149 502.69C292.969 504.107 279.98 522.221 275.469 519.221C272.021 516.978 289.403 503.21 290.017 497.967C290.631 492.724 277.902 509.775 274.714 507.413C273.509 506.563 272.753 505.784 281.468 497.046C285.695 492.819 301.966 479.972 301.966 479.972L335.029 364.607H378.364L329.007 500.447Z" fill="#FFBE9D"/>
<path d="M539.59 198.634C539.59 198.634 601.346 174.074 611.147 166.493C620.948 158.912 682.585 103.485 682.585 103.485L690.78 96.5895C691.796 95.0072 692.929 93.0943 694.181 90.78C695.241 88.7989 695.952 86.6498 696.283 84.4272C696.816 81.6744 696.967 78.8612 696.731 76.0672C696.596 75.547 696.626 74.9977 696.816 74.495C697.006 73.9923 697.348 73.561 697.793 73.2604C698.239 72.9599 698.767 72.805 699.304 72.8171C699.841 72.8291 700.362 73.0075 700.793 73.3277C702.494 74.9336 704.005 81.8531 702.021 89.8589C700.038 97.8647 710.452 90.0715 714.302 87.2612C718.151 84.4509 730.455 76.3978 732.25 76.9174C734.895 77.6495 734.611 80.6014 730.668 83.2937C726.724 85.9859 715.601 94.9127 717.183 96.8729C718.765 98.833 738.13 84.3328 738.13 84.3328C738.13 84.3328 741.767 80.5778 743.656 82.7741C747.081 86.7416 725.33 100.628 723.229 101.903C721.764 102.777 723.394 104.973 724.905 103.934C726.417 102.895 743.916 89.056 747.435 93.0707C750.127 96.1408 729.652 104.643 727.621 109.602C725.59 114.561 742.499 101.572 744.955 104.619C745.876 105.752 746.396 106.721 735.627 112.743C730.384 115.648 711.208 123.535 711.208 123.535L709.177 125.637L627.064 210.678L551.682 240.836L539.59 198.634Z" fill="#FFBE9D"/>
<path d="M431.169 107.878C427.691 112.055 425.383 117.08 424.483 122.441C423.582 127.802 424.121 133.306 426.045 138.39C428.713 145.191 433.933 151.426 433.484 158.723C432.941 167.768 423.707 174.829 424.226 183.874C424.793 194.076 437.829 200.406 437.829 210.702C437.829 220.999 431.547 225.013 419.432 227.233C411.663 228.65 407.341 219.039 403.492 212.143C399.642 205.247 398.39 197.217 397.588 189.424C396.281 176.389 396.083 163.266 396.997 150.198C397.706 139.642 399.359 128.802 404.767 119.757C407.616 115.116 411.395 111.115 415.866 108.006C420.336 104.897 425.402 102.747 430.744 101.691" fill="#263238"/>
<path d="M482.818 126.771C478.921 132.722 466.57 129.132 459.202 124.952C455.301 127.434 450.588 128.299 446.06 127.365C441.532 126.43 437.547 123.769 434.948 119.946C430.673 125.377 422.006 123.583 418.842 117.584C415.677 111.586 417.448 103.013 421.794 97.6286C426.179 92.6333 432.197 89.3604 438.774 88.3947C446.328 86.9432 454.141 87.7351 461.251 90.6728C468.36 93.6105 474.453 98.5653 478.779 104.926C482.888 111.137 485.368 119.497 482.912 126.936" fill="#263238"/>
<path d="M482.936 125.661C482.723 125.802 480.574 121.953 475.851 116.71C469.891 109.815 462.119 104.726 453.416 102.021C444.649 99.5045 435.269 100.225 426.989 104.052C423.642 105.774 420.621 108.068 418.063 110.83C418.063 110.83 418.063 110.57 418.464 110.145C418.891 109.513 419.373 108.92 419.905 108.374C421.811 106.296 424.075 104.576 426.588 103.296C435.022 99.1235 444.719 98.2803 453.746 100.935C458.662 102.387 463.288 104.68 467.42 107.713C470.778 110.184 473.83 113.046 476.512 116.238C478.316 118.369 479.943 120.644 481.377 123.039C481.991 123.853 482.514 124.732 482.936 125.661Z" fill="#455A64"/>
<path d="M446.26 128.022C446.071 128.022 445.599 125.92 444.135 122.78C442.297 118.653 439.365 115.109 435.656 112.53C431.896 110.05 427.373 108.994 422.904 109.555C421.063 109.901 419.254 110.398 417.496 111.042C417.496 111.042 417.874 110.617 418.747 110.121C420.002 109.434 421.357 108.948 422.762 108.681C427.481 107.836 432.345 108.842 436.341 111.491C440.237 114.187 443.225 117.999 444.914 122.425C445.741 124.179 446.199 126.084 446.26 128.022Z" fill="#455A64"/>
<path d="M408.356 229.359C408.356 229.359 376.475 238.451 364.549 258.1C352.623 277.748 315.734 416.138 315.734 416.138L357.913 420.861L393.006 328.759L401.673 357.546L396.147 385.886L504.119 390.939L511.747 266.837L627.064 210.679L640.053 197.217L606.518 161.793L593.718 173.743L478 216.134C478 216.134 482.298 250.33 451.101 255.289C419.905 260.249 408.356 229.359 408.356 229.359Z" fill="#FF4F4F"/>
<path d="M495.736 275.717H470.041V282.4H495.736V275.717Z" fill="#FAFAFA"/>
<path d="M381.08 287.879C381.411 287.879 386.228 302.946 391.872 321.768C397.517 340.59 401.791 355.893 401.461 356.011C401.13 356.129 396.312 340.921 390.692 322.122C385.071 303.324 380.749 287.974 381.08 287.879Z" fill="#263238"/>
<path d="M532.388 239.703C527.588 243.42 523.23 247.675 519.399 252.384C515.91 257.358 513.016 262.724 510.779 268.372C510.93 266.562 511.385 264.789 512.125 263.13C515.199 254.865 520.615 247.676 527.712 242.442C529.109 241.278 530.689 240.352 532.388 239.703Z" fill="#263238"/>
<g opacity="0.2">
<path d="M383.111 294.397C380.637 306.042 379.41 317.917 379.45 329.821C379.348 332.768 379.69 335.714 380.466 338.559C380.852 339.981 381.517 341.312 382.421 342.475C383.324 343.639 384.45 344.611 385.732 345.337C388.92 340.755 392.227 335.891 392.817 330.317C392.916 326.413 392.3 322.523 390.999 318.84C388.574 310.291 386.134 301.742 383.678 293.193" fill="black"/>
</g>
<path d="M411.379 222.676C417.094 226.667 419.007 234.342 418.747 241.285C418.488 248.228 416.386 255.029 416.126 261.996C415.866 268.963 417.567 276.615 423.211 280.747L450.653 271.443C445.245 268.349 444.111 260.933 445.292 254.911C446.473 248.889 449.33 243.103 449.637 236.822C450.511 220.503 438.774 206.569 433.295 199.933" fill="#263238"/>
<path d="M514.439 328.31L499.301 359.459C495.953 366.352 494.757 374.093 495.869 381.674C496.981 389.256 500.349 396.328 505.536 401.968C509.604 406.383 514.656 409.777 520.282 411.874C525.907 413.97 531.948 414.711 537.913 414.036L596.765 407.329V372.33L538.858 374.007L553.335 348.525L514.439 328.31Z" fill="#B78876"/>
<path d="M588.995 217.527C579.289 201.137 576.502 179.293 574.046 160.4C572.889 151.497 570.858 138.838 577.116 133.265C583.823 127.314 584.461 118.127 592.159 113.522C599.858 108.917 610.297 108.539 617.57 113.806" fill="#263238"/>
<path d="M615.87 275.622C619.396 275.898 622.942 275.461 626.295 274.335C629.649 273.209 632.74 271.419 635.386 269.071C638.031 266.723 640.176 263.866 641.692 260.67C643.208 257.474 644.064 254.006 644.209 250.471C644.799 236.16 645.319 221.683 645.319 221.683C645.319 221.683 667.046 219.7 668.675 198.233C670.305 176.766 669.738 127.149 669.738 127.149C657.859 121.145 644.595 118.418 631.311 119.248C618.027 120.078 605.205 124.436 594.167 131.872L595.3 207.443L595.159 248.133C595.229 261.713 602.291 274.442 615.87 275.622Z" fill="#B78876"/>
<path d="M647.397 171.948C643.689 167.343 637.691 165.477 632.732 168.689C630.295 170.371 628.534 172.864 627.764 175.723C626.995 178.582 627.265 181.621 628.528 184.299C629.638 186.28 631.143 188.011 632.951 189.385C634.76 190.758 636.831 191.744 639.037 192.282C641.012 192.722 642.757 193.872 643.94 195.513C645.124 197.154 645.665 199.172 645.461 201.185C644.823 206.593 635.849 208.577 631.787 212.993C625.481 219.912 611.643 222.817 602.338 223.88C593.033 224.943 594.285 225.013 588.995 217.48C585.424 212.377 583.609 206.252 583.823 200.028L582.973 152.512C582.637 146.804 583.018 141.075 584.106 135.462C585.215 129.768 588.438 124.706 593.128 121.292C598.37 117.868 604.936 117.608 610.958 115.695C618.397 113.333 624.726 108.398 631.692 104.855C638.659 101.313 647.208 99.2109 654.199 102.73C659.205 105.257 662.559 110.287 667.423 113.074C674.343 117.041 683.813 116.167 687.143 126.393C688.278 129.957 688.229 133.793 687.001 137.327C682.278 151.213 665.015 156.763 652.64 150.717C652.404 153.079 654.694 158.322 652.191 165.737C651.388 168.099 651.105 171.736 647.468 171.807" fill="#263238"/>
<path d="M643.501 185.338C643.501 185.338 643.501 185.74 643.217 186.259C642.932 186.617 642.574 186.909 642.166 187.117C641.759 187.324 641.312 187.443 640.856 187.464C639.346 187.367 637.93 186.697 636.898 185.591C635.866 184.485 635.297 183.025 635.306 181.513C635.253 180.688 635.368 179.86 635.644 179.081C635.92 178.302 636.352 177.586 636.912 176.978C637.801 176 638.973 175.323 640.265 175.042C642.485 174.593 643.76 175.396 643.666 175.538C643.571 175.679 642.343 175.538 640.572 176.081C639.451 176.446 638.479 177.167 637.806 178.134C637.132 179.102 636.793 180.264 636.841 181.442C636.844 182.603 637.248 183.728 637.983 184.627C638.719 185.526 639.741 186.144 640.879 186.378C642.627 186.472 643.359 185.197 643.501 185.338Z" fill="#7C5142"/>
<path d="M590.648 136.099C595.047 134.188 598.808 131.058 601.487 127.08C604.166 123.102 605.651 118.44 605.768 113.645C605.886 108.85 604.629 104.122 602.147 100.018C599.665 95.9133 596.062 92.6042 591.761 90.4805C587.461 88.3568 582.643 87.507 577.875 88.0314C573.108 88.5558 568.589 90.4325 564.853 93.4402C561.117 96.4479 558.319 100.461 556.788 105.007C555.258 109.552 555.059 114.441 556.216 119.096C556.758 120.526 556.758 122.105 556.216 123.536C555.295 125.118 553.146 125.33 551.493 125.897C545.423 128.259 544.597 137.445 549.131 142.192C553.665 146.939 560.939 147.6 567.268 145.924C565.733 151.426 570.692 157.33 576.384 157.991C579.253 158.139 582.108 157.506 584.645 156.158C587.182 154.81 589.306 152.799 590.79 150.34C593.7 145.369 595.376 139.773 595.678 134.021" fill="#263238"/>
<path d="M605.219 109.98C605.334 110.7 605.334 111.433 605.219 112.153C605.12 114.158 604.835 116.151 604.369 118.104C602.849 124.573 599.569 130.496 594.893 135.218C590.217 139.94 584.326 143.277 577.872 144.861C575.926 145.327 573.942 145.612 571.944 145.711C571.218 145.842 570.474 145.842 569.748 145.711C569.748 145.498 572.865 145.451 577.659 144.105C583.88 142.365 589.543 139.042 594.096 134.46C598.649 129.878 601.936 124.194 603.637 117.962C604.959 113.097 604.983 109.956 605.219 109.98Z" fill="#F5F5F5"/>
<path d="M581.414 90.0713C581.414 90.0713 581.627 89.9296 582.052 89.8352C582.692 89.6711 583.352 89.5996 584.012 89.6226C586.488 89.7342 588.864 90.6363 590.79 92.1968C592.126 93.2508 593.269 94.5294 594.167 95.9753C595.172 97.6502 595.876 99.4887 596.245 101.407C596.997 105.764 596.82 110.23 595.725 114.514C593.993 122.263 590.547 129.525 585.641 135.768C584.209 137.653 582.63 139.422 580.918 141.058C580.32 141.709 579.627 142.266 578.864 142.711C578.698 142.546 581.532 140.066 585.075 135.249C589.673 128.939 592.928 121.753 594.639 114.136C595.7 110.018 595.909 105.727 595.253 101.525C594.929 99.7186 594.307 97.9788 593.411 96.3768C592.605 95.0103 591.575 93.7889 590.365 92.7636C588.54 91.3014 586.319 90.421 583.988 90.2367C582.359 89.9533 581.414 90.2367 581.414 90.0713Z" fill="#455A64"/>
<path d="M555.248 124.339C555.248 124.339 555.436 123.701 556.027 122.733C556.879 121.355 557.885 120.079 559.026 118.931C562.814 115.065 567.744 112.52 573.089 111.669C578.434 110.819 583.911 111.709 588.711 114.207C590.149 114.941 591.502 115.828 592.75 116.852C593.624 117.584 594.025 118.057 593.978 118.128C593.931 118.198 591.97 116.616 588.334 114.987C583.622 112.817 578.37 112.108 573.252 112.949C568.134 113.791 563.385 116.146 559.617 119.71C556.617 122.26 555.436 124.457 555.248 124.339Z" fill="#455A64"/>
<path d="M597.52 132.745C597.638 132.604 600.354 134.8 605.03 137.941C611.1 142.05 617.544 145.576 624.277 148.474C627.967 150.089 631.744 151.501 635.589 152.701C638.633 153.802 641.81 154.493 645.036 154.756C647.213 154.851 649.372 154.309 651.247 153.197C652.546 152.394 653.065 151.662 653.16 151.733C653.254 151.804 652.805 152.607 651.506 153.598C649.621 154.949 647.354 155.66 645.036 155.629C641.671 155.5 638.344 154.871 635.164 153.764C624.151 150.506 613.77 145.403 604.463 138.673C602.102 136.996 600.401 135.532 599.197 134.493C598.565 133.985 598.002 133.398 597.52 132.745Z" fill="#455A64"/>
<path d="M591.05 105.587C590.811 104.607 590.731 103.594 590.813 102.588C590.837 99.8376 591.34 97.1123 592.301 94.5351C593.726 90.5971 596.621 87.3639 600.378 85.5138C602.617 84.3851 605.136 83.9337 607.628 84.2149C610.314 84.5556 612.808 85.7861 614.713 87.7101C616.611 89.587 617.994 91.9213 618.727 94.4879C619.363 96.8571 619.54 99.326 619.247 101.762C618.701 105.827 617.3 109.73 615.138 113.215C613.707 115.541 612.13 117.774 610.415 119.899C609.846 120.759 609.18 121.551 608.431 122.26C608.888 121.363 609.425 120.51 610.037 119.71C611.099 118.127 612.705 115.86 614.358 112.885C616.342 109.457 617.618 105.667 618.113 101.738C618.356 99.4476 618.164 97.1319 617.547 94.9129C616.84 92.5626 615.566 90.4218 613.839 88.6783C612.115 86.9533 609.877 85.8346 607.463 85.4901C605.203 85.2347 602.918 85.6279 600.874 86.6237C597.326 88.3241 594.551 91.3015 593.104 94.9602C592.104 97.4419 591.491 100.062 591.286 102.73C591.255 103.686 591.176 104.639 591.05 105.587Z" fill="#263238"/>
<path d="M836.136 55.8756C832.641 54.1044 822.557 72.8555 822.392 67.6836C822.226 62.5117 837.364 46.2166 833.633 44.5163C828.768 42.2964 818.589 62.1102 817.621 63.7161C816.653 65.322 814.268 63.9759 815.26 62.5589C816.653 60.5279 830.728 38.9429 825.981 36.5813C823.336 35.3533 821.589 40.289 821.589 40.289C821.589 40.289 809.899 61.5434 807.679 60.3626C805.459 59.1818 811.883 46.5473 814.362 42.4381C816.842 38.3289 815.85 35.5422 813.158 35.9437C811.316 36.2271 803.428 48.6727 801.09 52.8055C798.752 56.9383 792.494 68.3921 790.982 60.2445C789.471 52.097 785.22 46.4056 783.024 45.6498C782.498 45.541 781.952 45.5961 781.459 45.8078C780.966 46.0194 780.549 46.3773 780.266 46.8331C779.983 47.2889 779.846 47.8208 779.875 48.3567C779.903 48.8926 780.096 49.4068 780.426 49.8299C781.807 52.2636 782.841 54.8789 783.496 57.5995C784.108 59.7713 784.348 62.0311 784.205 64.2829C784.016 66.8806 783.756 69.0061 783.496 70.9662L778.891 80.6251C778.891 80.6251 745.545 156.551 739.854 167.508C734.162 178.466 687.899 226.359 687.899 226.359L697.652 282.4L772.633 201.232L812.237 89.7645L813.205 87.0014C813.205 87.0014 827.375 71.9108 830.964 67.0932C838.309 57.1744 837.435 56.5368 836.136 55.8756Z" fill="#B78876"/>
<path d="M738.295 247.897L705.091 204.255L703.627 205.318L650.656 238.663L594.119 240.624C594.119 240.624 554.468 240.624 539.59 271.868C537.961 275.292 505.394 340.354 505.394 340.354L555.673 358.798L563.82 335.56L574.211 388.271L559.239 431.724L685.254 438.478L674.697 375.376L684.144 299.805L738.295 247.897Z" fill="#FF4F4F"/>
<path d="M650.562 349.659C650.727 350.865 650.727 352.089 650.562 353.296C650.243 356.604 649.448 359.85 648.2 362.931C643.876 373.166 636.059 381.535 626.143 386.547C616.239 391.322 605.288 393.516 594.309 392.923C591.006 392.815 587.716 392.475 584.461 391.908C583.258 391.779 582.076 391.502 580.942 391.081C580.942 390.798 586.067 391.766 594.332 391.837C605.08 392.104 615.738 389.822 625.434 385.177C635.04 380.324 642.716 372.357 647.208 362.577C648.837 358.42 649.963 354.083 650.562 349.659Z" fill="#263238"/>
<path d="M574.707 390.703C574.282 390.703 568.236 363.427 561.199 329.609C554.161 295.791 548.777 268.207 549.202 268.207C549.627 268.207 555.649 295.483 562.71 329.302C569.771 363.12 575.132 390.609 574.707 390.703Z" fill="#263238"/>
<g opacity="0.2">
<path d="M590.247 392.876C588.877 387.916 592.75 382.839 597.331 380.619C601.913 378.399 607.274 378.116 612.28 376.935C622.055 374.623 630.676 368.883 636.581 360.758C637.36 359.648 638.305 358.396 639.651 358.396C640.31 358.421 640.942 358.668 641.443 359.097C641.945 359.525 642.287 360.111 642.414 360.758C642.883 362.289 642.964 363.912 642.65 365.481C640.289 377.573 630.535 382.626 620.546 387.987C610.556 393.348 602.55 393.868 590.176 392.876" fill="black"/>
</g>
</g>
<rect width="1536" height="128.4" transform="translate(0 250)" fill="url(#paint0_linear_462_721)"/>
<defs>
<linearGradient id="paint0_linear_462_721" x1="768" y1="0" x2="768" y2="128.4" gradientUnits="userSpaceOnUse">
<stop stop-color="white" stop-opacity="0"/>
<stop offset="1" stop-color="white"/>
</linearGradient>
<clipPath id="clip0_462_721">
<rect width="1181" height="370" fill="white" transform="translate(176)"/>
</clipPath>
</defs>
</svg>
