<svg width="777" height="811" viewBox="0 0 777 811" fill="none" xmlns="http://www.w3.org/2000/svg">
<g clip-path="url(#clip0_599_330)">
<rect x="0.200195" y="0.799805" width="776.4" height="810" rx="24" fill="white"/>
<path d="M-111.914 639.634C177.327 457.472 448.028 781.964 396.79 920.766C395.8 923.448 392.638 924.444 390.162 923.015L346.95 898.067C345.921 897.472 345.139 896.486 344.77 895.356C258.58 631.363 52.774 579.669 -19.5578 695.514C-20.9619 697.763 -23.9163 698.598 -26.2121 697.273L-111.853 647.828C-114.948 646.041 -114.939 641.538 -111.914 639.634Z" fill="#EE1313" fill-opacity="0.05"/>
<path d="M663.826 -104.93C547.842 216.615 134.807 127.304 89.8202 -13.6489C88.9512 -16.3719 90.8311 -19.1029 93.6618 -19.4989L143.078 -26.4111C144.255 -26.5758 145.478 -26.2789 146.464 -25.615C376.812 129.5 570.871 43.6547 556.637 -92.1735C556.36 -94.8101 558.176 -97.2863 560.801 -97.6535L658.737 -111.353C662.277 -111.848 665.039 -108.292 663.826 -104.93Z" fill="#EE1313" fill-opacity="0.03"/>
</g>
<defs>
<clipPath id="clip0_599_330">
<rect width="776.4" height="810" fill="white" transform="translate(0.200195 0.799805)"/>
</clipPath>
</defs>
</svg>
