<svg width="1728" height="1476" viewBox="0 0 1728 1476" fill="none" xmlns="http://www.w3.org/2000/svg">
<g clip-path="url(#clip0_90_579)">
<rect width="1728" height="1474.8" transform="translate(0 0.399902)" fill="#D91D1D"/>
<path d="M2418.59 22.1629C1751.44 760.553 746.338 45.366 801.777 -375.541C802.15 -378.374 804.938 -380.14 807.699 -379.4L957.953 -339.14C959.101 -338.832 960.112 -338.08 960.759 -337.083C1396.24 334.198 2008.59 319.954 2115.7 -61.3231C2116.41 -63.8753 2119.06 -65.4644 2121.62 -64.7783L2416.4 14.2063C2419.85 15.1314 2420.99 19.511 2418.59 22.1629Z" fill="#FF0C0C" fill-opacity="0.2"/>
<path d="M187.732 1504.02C864.891 754.411 1885.18 1480.46 1828.77 1907.66C1828.4 1910.49 1825.61 1912.26 1822.85 1911.52L1670.25 1870.63C1669.1 1870.32 1668.09 1869.57 1667.44 1868.57C1225.42 1187.2 603.868 1201.69 495.21 1588.74C494.494 1591.29 491.846 1592.88 489.285 1592.2L189.925 1511.98C186.473 1511.06 185.336 1506.68 187.732 1504.02Z" fill="#FF0C0C" fill-opacity="0.2"/>
</g>
<defs>
<clipPath id="clip0_90_579">
<rect width="1728" height="1474.8" fill="white" transform="translate(0 0.399902)"/>
</clipPath>
</defs>
</svg>
