<svg width="49" height="49" viewBox="0 0 49 49" fill="none" xmlns="http://www.w3.org/2000/svg">
<path d="M23.956 14.8812C24.2459 14.0976 25.3542 14.0976 25.6441 14.8812L27.8975 20.9709C27.9887 21.2172 28.1829 21.4115 28.4293 21.5026L34.519 23.756C35.3025 24.046 35.3025 25.1542 34.519 25.4442L28.4293 27.6976C28.1829 27.7887 27.9887 27.983 27.8975 28.2293L25.6441 34.319C25.3542 35.1026 24.2459 35.1026 23.956 34.319L21.7026 28.2293C21.6114 27.983 21.4172 27.7887 21.1708 27.6976L15.0811 25.4442C14.2975 25.1542 14.2975 24.046 15.0811 23.756L21.1708 21.5026C21.4172 21.4115 21.6114 21.2172 21.7026 20.9709L23.956 14.8812Z" fill="#181818"/>
</svg>
